<svg width="121" height="91" viewBox="0 0 121 91" fill="none" xmlns="http://www.w3.org/2000/svg">
<path d="M37.1203 24.6101C37.0578 24.584 37.1464 24.7142 37.1516 24.7194C37.8339 25.5319 38.662 26.2559 39.4693 26.9486M34.4745 28.5319C34.4797 29.2663 36.3182 30.5059 36.7714 30.9017C39.1672 33.0007 41.6672 35.0215 44.5266 36.4434M31.2505 33.2455C32.6359 35.5059 38.1359 39.8601 40.7089 40.9747M29.537 36.3965C29.9536 36.4226 30.3391 37.5892 30.813 37.7194M24.7766 17.9955C24.6411 17.9955 24.7714 18.2715 24.7557 18.4121C24.7141 18.8601 24.6099 19.308 24.5057 19.7455C24.2453 20.8288 23.9172 21.9017 23.5214 22.9382C22.3443 26.0111 20.7297 28.3028 19.4641 31.3184M30.5057 17.5892C30.5474 17.6101 30.5318 17.7611 30.5318 17.7924C30.4484 19.2299 29.8078 20.7871 29.2714 22.0944C27.5474 26.3236 24.7818 30.0528 22.3286 33.8705M35.1203 18.5528C35.1568 18.5528 35.0109 19.0892 35.0057 19.1101C34.6307 20.3757 34.0682 21.5944 33.4693 22.7663C33.412 22.8757 33.3547 22.9799 33.2974 23.0892C33.2401 23.2038 33.1828 23.3132 33.1203 23.4226C30.6932 27.9538 27.7245 32.558 24.4641 36.5476M38.1932 19.3705C38.3859 20.6257 36.6411 23.8809 36.0995 24.9955C33.6359 30.058 30.2245 35.1517 26.3026 39.2142M20.4276 47.6569C20.4901 47.4903 19.0266 45.1517 18.9068 44.9538C17.3651 42.4694 15.6463 40.0059 13.2818 38.2403M23.7036 47.9486C23.7505 47.9746 23.6516 47.5476 23.6516 47.5476C23.4953 47.084 23.2714 46.6413 23.0422 46.209C22.4953 45.1622 21.9068 44.1361 21.2713 43.1413C19.3859 40.1934 17.1724 37.2611 14.3963 35.0997M27.6359 47.9851C27.7661 47.4017 25.6932 43.9903 25.4016 43.4694C23.1568 39.4799 19.412 33.6361 15.1047 31.4851M29.3182 45.4069C28.6099 43.1517 27.4797 41.8028 26.9432 40.7507C25.0474 37.0424 22.4328 33.8288 19.2141 31.2038C18.3547 30.5059 17.4745 29.8184 16.5474 29.209C16.5266 29.1934 15.8599 28.7142 15.8286 28.7351M41.4276 58.808C41.8234 59.459 41.3026 61.4278 41.0214 62.1257M37.7661 59.6413C37.8234 59.6569 37.7401 59.9017 37.7349 59.9434C37.4589 61.3288 36.7297 62.433 36.1151 63.6674M34.063 57.8184C34.1151 57.8132 34.0474 57.9174 34.0318 57.9694C33.9328 58.4122 33.7922 58.8549 33.6464 59.2819C33.3182 60.2247 32.8234 61.1257 32.2141 61.9122M31.0474 56.6986C31.1255 56.5997 31.037 56.9486 31.0005 57.0684C30.912 57.3965 30.7766 57.709 30.6516 58.0267C30.3234 58.8288 29.8911 59.6465 29.2766 60.2611M24.0995 56.3809C24.162 56.1882 26.1516 56.1778 26.3286 56.1674C28.6099 56.0528 30.9589 56.1101 33.2141 56.3913M20.2297 52.7142C23.2922 51.9278 27.6516 52.1465 30.7818 52.9382M16.9172 48.5163C16.9276 48.5528 16.9328 48.4434 16.9641 48.4278C17.7557 48.0215 18.9745 48.1101 19.8234 48.0684C20.7089 48.0267 29.0474 47.8965 29.6255 48.7038M12.787 40.7351C12.7661 40.7403 13.3547 42.2976 13.3703 42.334C13.5578 42.8549 13.7766 43.3653 14.0109 43.8653C15.2297 46.4642 16.8807 48.808 18.7245 51.0007C22.8286 55.8757 27.9641 59.7715 33.4953 62.8757C34.0109 63.1674 38.2036 65.4955 38.8286 65.2351M11.8338 46.7246C11.7974 46.7299 12.0422 47.2976 12.0474 47.3132C12.3911 48.2663 13.0005 49.1621 13.5422 50.0111C14.6411 51.7299 15.8911 53.3496 17.1984 54.9069C20.8547 59.2819 25.1516 63.1205 30.063 66.0215C31.7818 67.0372 33.5943 68.0215 35.537 68.5424C35.8286 68.6257 36.6568 68.5944 36.8911 68.7976M11.4276 55.2767C11.912 55.7872 13.1724 57.0372 13.6672 57.5319C15.1203 58.9903 16.5838 60.433 18.0578 61.8653C24.3443 67.9747 33.7557 72.4486 34.2766 72.9069M11.287 59.5892C12.1463 61.1153 13.9745 63.1986 15.1411 64.4747C18.2401 67.8601 22.3599 71.1882 26.6099 72.9799M13.0109 67.8236C13.0109 67.8392 12.563 66.8913 12.5474 66.8653C12.3495 66.4538 12.2193 66.0059 12.0943 65.5684C11.7818 64.433 11.5786 63.2767 11.4432 62.1101C11.0266 58.5372 11.1047 54.8965 11.3338 51.3184C11.787 44.1569 13.2297 37.183 15.1047 30.2767C16.1099 26.5788 17.4536 21.8444 20.0474 18.8757M14.6828 21.8236C14.5318 22.0371 14.2088 22.7038 14.0838 22.933C13.6932 23.6621 13.3755 24.4434 13.0682 25.209C12.1516 27.5163 11.3911 29.8965 10.6672 32.2715C8.1828 40.4121 7.21926 47.0163 7.33905 55.4747C7.3651 57.1101 7.22447 61.933 8.19322 63.4851M9.92239 25.9121C9.93801 25.8132 9.51093 26.7715 9.45885 26.9069C9.10468 27.7351 8.76093 28.5632 8.43801 29.3965C7.58905 31.584 6.82343 33.808 6.12551 36.0476C5.33905 38.5736 4.6828 41.1517 4.31822 43.7767C3.84947 47.1257 4.01614 54.2455 5.04218 58.5111M40.8495 20.3653C39.7141 20.1049 34.5214 16.4174 24.7557 17.7038C10.1984 19.6205 0.229676 36.1674 1.67238 47.1778C5.56301 76.959 34.3495 73.9122 35.9432 72.3132" stroke="#5897D7" stroke-width="1.10281" stroke-miterlimit="10" stroke-linecap="round" stroke-linejoin="round"/>
<path d="M55.6255 80.1308C52.5943 78.4797 50.1568 73.2402 46.136 74.386C42.8599 75.3183 41.313 79.4797 40.9172 82.5318C40.7922 83.4641 40.7557 84.4329 40.8391 85.3704C40.8703 85.7454 40.9172 86.1256 41.0162 86.4902C41.063 86.6672 41.287 87.0579 41.3443 87.1777L45.1828 87.7089C47.8912 89.235 50.7453 89.2089 53.8182 89.7402C56.412 90.1881 69.3391 91.511 68.9172 87.4954C67.938 78.1881 60.1776 82.61 55.6255 80.1308ZM41.3443 87.1777L41.3235 87.1725C41.3651 87.2245 41.3651 87.2193 41.3443 87.1777ZM76.3287 58.2349C72.438 56.3183 73.6412 51.5527 71.7818 48.3808C70.3651 45.9693 66.6724 46.162 65.537 43.7245C64.3495 41.1724 70.2089 31.6412 72.8547 30.9641C72.8807 30.9589 72.886 30.9589 72.9068 30.9693L82.3651 49.3912C83.2349 50.6724 84.0526 51.8079 84.1828 53.4433C84.4276 56.6464 79.4485 59.7714 76.3287 58.2349Z" fill="#F7D08A"/>
<path fill-rule="evenodd" clip-rule="evenodd" d="M104.417 86.9017C103.063 85.5996 102.568 83.886 102.313 82.0631C102.115 80.6777 102.224 79.2194 102.605 77.8704C102.625 77.7871 103.438 75.4381 103.375 75.386C103.188 75.2402 95.9328 77.8496 95.5682 81.761C95.4223 83.2715 95.6411 84.9069 96.1098 86.3444C96.2505 86.7767 96.4328 87.2038 96.6723 87.5944C96.8078 87.8183 97.4848 88.2558 97.2661 88.11L98.464 88.5267C100.438 88.3235 102.318 88.209 104.256 87.761C104.646 87.6673 105.438 87.5631 105.438 87.5631C105.438 87.5631 104.709 87.1829 104.417 86.9017ZM58.2713 33.1829C57.5369 32.6673 56.4953 33.3079 55.688 33.1985C53.339 32.8704 53.2713 30.0996 49.6307 32.511C49.4536 32.6204 48.3755 33.2402 48.4848 33.5527L44.714 36.5944C43.8234 37.5162 41.8911 43.3652 43.2921 44.0215C43.8026 44.2558 46.4692 42.1308 47.5161 42.0423C48.9796 41.9225 49.6359 43.7194 51.0005 44.0527C53.8807 44.7506 57.0838 40.6881 58.1567 38.485C58.7401 37.2871 59.7244 34.1985 58.2713 33.1829ZM71.8651 21.6465C71.9276 22.5319 71.2453 23.6517 70.3182 22.7715C68.8651 21.3808 69.3286 18.8392 68.1151 17.2871C66.8598 15.6829 63.8703 16.1725 63.0942 14.1308C62.3078 12.0631 64.9223 10.0058 66.5005 9.26624C67.0265 9.02145 67.6098 8.81833 68.188 8.76624C68.2401 8.76104 69.1463 8.91208 69.1151 8.94854L71.2661 16.9902C71.4171 17.8287 71.5109 18.6725 71.5994 19.5215C71.6671 20.2298 71.8078 20.9329 71.8651 21.6465Z" fill="#DC8A55"/>
<path d="M43.7193 28.1099C43.8651 28.2036 43.3912 28.214 43.2297 28.2818C42.9537 28.4015 42.6724 28.5318 42.4016 28.6672C41.5266 29.1047 40.6776 29.5943 39.8339 30.089C37.2505 31.6151 34.8078 33.3182 32.3912 35.0943M44.3964 25.4588C44.0735 25.339 40.6255 26.5838 40.2141 26.714C36.4328 27.938 32.7141 29.3234 29.162 31.1099M44.5995 22.8495C40.2714 22.6151 32.2974 23.1724 27.5526 25.1515M64.287 5.47967C64.563 5.0005 65.912 4.16717 66.5318 3.75571C69.1151 2.04738 70.4276 1.76091 70.761 4.80779C71.0422 7.34946 71.0266 10.8442 70.7245 13.3911M55.1047 3.90154C59.9172 3.93279 65.912 5.51612 68.0526 8.03175C72.7401 13.5578 71.4172 25.9224 73.2453 31.8182C74.5214 35.9328 77.1308 40.1828 79.0058 43.3911C81.3755 47.4536 83.9953 51.3599 86.6516 55.2401C92.3131 63.5005 95.0891 68.3391 90.1776 78.0891M45.6047 55.8547C45.5995 55.8495 44.886 56.9172 44.8755 56.9276C43.7557 58.5839 42.537 60.1672 41.4068 61.813C37.9901 66.7818 34.3807 72.938 34.8599 79.2297C35.0787 82.1359 36.9224 84.0162 39.261 85.5057C48.162 91.1984 59.4589 89.5943 69.5058 89.3755C73.3495 89.2922 78.2089 89.9641 81.136 86.813M39.1047 44.3547C37.7089 37.8599 30.6932 37.3755 29.8547 38.0995C28.1203 39.5995 29.7609 50.8234 30.8703 53.0213C31.7505 54.7505 33.0682 56.1776 34.5057 57.4536C37.4172 60.0422 37.8651 59.5161 41.4172 58.0266C44.9745 56.5318 48.2714 54.2036 51.386 51.938M53.1464 30.3026C53.1412 30.287 53.0005 30.2974 52.9849 30.2974C51.2714 30.3495 49.0578 32.412 47.8443 33.4172C44.4432 36.2245 41.4589 39.662 39.537 43.6672C38.8287 45.1463 38.4328 46.7922 37.6307 48.2193M47.1203 8.13592C46.6099 8.50571 46.3912 9.35988 46.0578 9.91196C44.6985 12.1932 42.9328 14.2193 42.1047 16.7818C41.5422 18.5213 41.6307 20.3807 41.0839 22.1151C40.537 23.839 38.9432 25.3651 39.3599 27.287C40.1985 31.1411 43.9745 33.0786 47.5005 33.4172M47.0057 11.5786C47.0057 11.5786 47.0162 10.188 47.0266 9.99008C47.1568 7.70363 47.4797 5.3755 48.0057 3.14633C48.7141 0.167165 49.8078 0.526538 52.4589 2.0682C53.3547 2.59425 54.1776 3.21925 54.9068 3.95883C55.9172 4.97967 56.9693 6.07341 57.8547 7.20883M83.8391 78.3339C83.636 78.4589 84.313 78.3912 84.5474 78.4484C85.4589 78.6672 86.386 78.8234 87.3183 78.9484C89.7453 79.2609 92.0422 79.3339 94.4433 78.8026C101.037 77.3443 106.636 72.3807 113.344 71.5891C115.948 71.2818 119.86 72.1724 120.058 75.4016C120.355 80.188 114.376 84.1984 110.537 85.5578C104.146 87.8182 95.5318 89.4693 88.9433 88.3339C84.8547 87.6255 81.1568 85.3391 76.9485 86.2662" stroke="#7284A8" stroke-width="1.10281" stroke-miterlimit="10" stroke-linecap="round" stroke-linejoin="round"/>
</svg>
