<svg width="135" height="97" viewBox="0 0 135 97" fill="none" xmlns="http://www.w3.org/2000/svg">
<path fill-rule="evenodd" clip-rule="evenodd" d="M62.3482 59.9383C66.1086 53.4122 65.9628 55.5737 67.5045 55.8862C71.2493 56.6362 79.5826 56.5997 81.9941 56.2299C82.1295 56.2091 83.5201 54.881 83.6191 55.0424C83.7857 55.308 80.6451 60.631 80.4211 61.0476C79.1399 63.4695 79.0461 66.2351 78.0149 68.7768C76.7857 71.8133 76.2961 75.3966 73.3326 77.0633C71.5982 78.032 55.9472 75.2664 56.7805 69.4643C57.3066 65.808 60.5618 63.0424 62.3482 59.9383Z" fill="#EEAAD3"/>
<path fill-rule="evenodd" clip-rule="evenodd" d="M70.6191 21.4851C70.4472 21.5944 71.1712 22.7663 71.2493 22.9174C71.317 23.0319 71.3795 23.1517 71.4472 23.2663C71.4837 23.3392 71.5878 23.5476 71.5826 23.4694L71.9837 23.3444C72.2753 23.2194 72.5618 23.0736 72.8274 22.9017C75.2076 21.3809 70.9784 21.2663 70.6191 21.4851ZM73.067 3.20382C72.1816 3.74549 71.6243 8.15695 72.4003 8.49549C73.1816 8.83403 77.6191 6.1257 77.7284 5.24549C77.843 4.36007 73.9576 2.66216 73.067 3.20382ZM95.5305 15.7976C94.5878 16.1309 89.6399 10.9903 90.3587 9.88611C91.2389 8.53195 95.2649 7.40695 96.0097 7.89132C97.2284 8.6882 96.468 15.4642 95.5305 15.7976Z" fill="#EEAAD3"/>
<path d="M67.275 25.5734C63.749 26.9172 60.0615 27.8703 56.6865 29.7297M67.275 24.1411C67.2958 24.1411 66.9989 24.0942 66.9469 24.0942C66.7021 24.089 66.4521 24.0942 66.2021 24.0994C65.3583 24.1203 64.5198 24.1828 63.676 24.2609C61.3323 24.4797 58.7854 24.7244 56.5459 25.5057M67.15 22.4328C67.176 22.4744 67.1448 22.4015 66.9521 22.3703C66.7073 22.3286 66.4573 22.2922 66.2125 22.2557C65.4729 22.1567 64.7333 22.0682 63.9885 22.0005C61.6031 21.7921 58.8271 21.3599 56.4469 21.8234M84.2332 27.688C84.1811 27.662 84.5561 27.6567 84.577 27.6567C84.8791 27.688 85.1811 27.7453 85.478 27.7974C86.3113 27.9432 87.1395 28.1463 87.952 28.3703C90.4363 29.0474 92.879 29.9224 95.2696 30.8703M84.5457 25.6672C85.0457 25.5422 85.827 25.1463 86.4259 25.0005C89.1447 24.3494 91.9207 23.9536 94.6967 23.688M84.728 23.7557C84.5822 23.6828 84.9884 23.5578 85.1291 23.4744C85.3634 23.339 85.6082 23.214 85.853 23.0942C86.6291 22.7088 87.4207 22.3651 88.2124 22.0265C90.5301 21.0474 92.8999 20.188 95.3061 19.4536M71.6552 24.188C71.7854 24.3911 71.8375 25.089 71.9937 25.3963C72.3895 26.1776 73.0302 26.7974 73.6552 27.3911M71.5822 23.8338C71.5666 23.8234 71.4677 24.063 71.4416 24.1099C71.3062 24.3703 71.1343 24.6047 70.9573 24.8338C70.4156 25.5213 69.7958 26.162 69.0666 26.6567M40.0355 73.9798C39.2022 74.136 38.3584 74.2402 37.5147 74.3131C34.7908 74.5371 32.0251 74.3652 29.3168 74.0527C20.8637 73.0735 10.3638 70.4902 3.2909 76.9069C1.98362 78.0891 0.811749 79.6881 1.02529 81.5423C1.85341 88.8444 20.9783 93.9798 23.5304 88.9433C24.3637 87.2975 20.4367 86.4798 19.5304 86.3235C15.5669 85.6308 3.92111 85.959 4.83256 80.386C6.56693 69.7975 30.322 78.7141 38.3012 77.7975M57.124 82.5214C57.1292 82.5267 56.5615 83.0839 56.4469 83.1829C55.7386 83.8392 55.0146 84.4746 54.2907 85.11C53.1344 86.1204 44.624 91.8444 46.6188 93.7454C47.7386 94.8131 56.1917 92.8756 58.0146 92.7454C68.9989 91.9538 81.0197 93.3913 90.5874 86.9069M50.3376 79.5214C50.999 80.0892 52.5615 80.5996 53.4521 80.9485C59.5354 83.3287 66.275 83.8704 72.6552 82.4642M63.0667 52.5578C63.0667 52.5474 62.4573 53.3339 61.999 53.8651C61.2646 54.7037 60.499 55.5058 59.7073 56.287C57.0823 58.8964 54.3688 61.4277 51.5198 63.7818C48.4157 66.3495 44.3376 68.537 41.8116 71.7193C38.9991 75.261 37.8949 80.1517 35.6345 84.0683C34.5095 86.011 33.171 87.7923 31.5095 89.3079C31.2335 89.5631 30.4574 90.0006 30.5251 90.4694C30.7335 91.8288 36.6085 91.6413 37.4782 91.584C42.9938 91.2246 47.5251 88.985 52.0094 85.8756C53.3219 84.9642 54.9104 83.1881 56.5094 82.7923M100.223 43.0839C97.5144 43.7766 94.9519 45.1516 92.6446 46.7037C91.0665 47.761 89.603 48.9433 88.2905 50.3235C86.1707 52.5526 77.9937 62.662 78.3583 66.0787C78.3895 66.36 79.9885 65.912 81.6343 65.7402C85.9259 65.3027 85.3999 66.8756 88.3895 63.7454M69.4573 48.3235C69.4208 48.3547 69.6135 48.2818 69.6187 48.2818C70.3635 48.0474 71.1187 47.8807 71.8739 47.7037C73.4208 47.3495 74.9729 47.0005 76.5301 46.6932C80.801 45.8547 88.5613 44.2922 92.7436 46.2089M71.4625 44.9693C71.801 45.4276 73.2802 46.5422 73.8739 47.2141M69.1135 36.7922C66.4312 40.0526 61.1083 47.313 62.801 51.7714C63.7125 54.1724 65.8948 55.162 68.1656 55.9016C74.0249 57.8079 80.3687 57.3443 85.5197 53.5683M88.2957 8.7765C89.1655 7.4692 92.8321 6.32857 94.2696 5.76607C97.4884 4.50045 97.978 5.39628 98.6759 8.75567C99.2748 11.6203 99.2384 17.438 99.2384 17.438C99.7227 21.5057 101.343 25.6776 101.697 29.7713C101.697 29.7713 110.728 42.6828 105.603 48.2766M93.3165 5.93274C90.4624 5.01607 87.9207 4.95878 86.3061 4.82858C81.8843 4.47962 77.3947 5.34941 73.7593 8.01088C67.8948 12.3026 67.8635 17.7401 66.4781 24.1567C66.0979 25.9276 64.8583 28.037 65.1396 29.8651C65.5146 32.3338 68.3218 35.7974 70.5718 37.037M70.7125 10.3078C70.4 8.87025 71.2489 2.05773 72.3322 1.02648C72.4364 0.927523 72.7697 1.13586 72.8635 1.17752C75.1031 2.14627 78.2853 3.26086 80.176 4.85461" stroke="#7284A8" stroke-width="1.18102" stroke-miterlimit="10" stroke-linecap="round" stroke-linejoin="round"/>
<path d="M100.499 77.1933C101.145 75.9537 106.379 71.6048 107.754 71.0631M101.895 79.2402C101.801 79.2975 102.046 79.0787 102.119 79.0006C102.317 78.8027 102.514 78.6152 102.723 78.4277C103.379 77.8339 104.072 77.2819 104.764 76.7298C106.91 75.0162 109.171 73.4798 111.405 71.8912M103.598 81.2819C103.551 81.3131 103.785 80.985 104.363 80.4329C105.014 79.8079 105.707 79.2142 106.389 78.6204C108.415 76.86 110.546 75.2037 112.686 73.5787M105.374 84.1517C105.379 84.1621 106.108 83.3756 106.134 83.3496C106.665 82.7819 107.228 82.2402 107.801 81.709C109.468 80.1569 111.587 78.4433 113.311 76.9537M107.499 86.4069C107.499 86.4277 107.686 86.261 107.697 86.2506C107.91 86.0527 108.119 85.8548 108.332 85.6569C108.884 85.1256 109.447 84.61 110.009 84.0892C111.759 82.4642 112.848 81.1256 114.759 79.6829M109.889 88.5579C110.358 88.0944 111.832 86.6204 112.306 86.1673C113.671 84.8652 114.973 83.9017 116.191 82.459M112.181 89.8496C113.15 88.7663 116.093 85.5006 117.332 84.7142M121.827 64.1256C121.816 64.1152 121.926 64.86 121.941 64.9277C122.108 65.7402 122.306 66.5423 122.535 67.3443C123.082 69.2766 123.91 71.6829 124.691 73.5319M118.525 60.912C118.441 60.7454 118.525 61.1672 118.53 61.1933C118.592 61.6412 118.665 62.0891 118.749 62.5318C118.973 63.6881 119.249 64.8339 119.556 65.9693C120.535 69.5787 121.811 73.0214 123.613 76.2975M116.025 59.0162C116.113 60.5631 116.129 62.761 116.337 64.2975C117.046 69.5162 118.78 75.5475 121.686 80.0319M114.014 57.636C114.363 58.5266 114.093 61.7818 114.171 62.8808C114.41 66.3964 116.499 80.5267 120.025 82.6777M112.186 56.9693C112.124 57.5474 111.978 58.7037 111.947 59.2818C111.837 61.2506 111.895 63.235 112.014 65.2037C112.436 72.0996 113.593 80.3287 118.624 85.5788M108.218 57.5006C108.077 57.4641 108.426 57.7037 108.54 57.7975C108.744 57.9537 108.952 58.1047 109.165 58.2506C109.848 58.7193 110.603 59.235 111.4 59.4745M105.52 58.2297C105.499 58.2506 105.535 58.3079 105.546 58.3183C106.202 59.1464 107.322 59.7662 108.197 60.3183C109.113 60.8912 110.113 61.5058 111.171 61.787M103.025 59.4433C102.9 59.235 103.259 59.8704 103.436 60.037C103.973 60.5318 104.546 60.985 105.15 61.3964C106.884 62.5839 109.447 63.7923 111.452 64.4329M100.223 60.7506C100.228 60.7454 100.483 60.985 100.499 60.9954C101.343 61.6672 102.207 62.3079 103.113 62.8964C105.848 64.6725 108.79 66.287 112.035 66.86M98.5093 61.6204C102.139 64.8079 107.02 68.1725 112.103 69.5683M96.3739 62.9485C97.4364 63.9381 99.3843 66.011 100.567 66.8652C104.113 69.4329 108.061 71.4537 112.473 71.7819M92.6551 65.3652C94.8999 65.5943 96.202 65.2506 97.4884 64.9173M90.4103 67.1725C91.4676 67.1881 92.8218 67.235 93.4103 67.2089C95.4207 67.1256 97.4676 66.985 99.4207 66.4693M87.9416 69.1829C92.1499 69.5318 97.1499 69.5787 101.025 67.6204M87.3739 70.9016C92.8166 71.9329 99.1551 71.7298 104.525 69.6673M87.2385 72.5944C87.2385 72.5944 90.3739 73.6204 91.577 73.7714C95.1082 74.2141 98.8009 73.9277 102.27 73.1673C103.54 72.886 106.02 72.1881 107.025 71.2194M92.2801 56.8339C94.5041 55.0474 98.9468 52.6672 101.587 51.6099M89.4989 61.4745C93.577 58.0527 100.598 53.886 105.139 52.7506M87.9937 65.3079C92.1916 61.2818 102.843 55.7193 108.931 54.6099M87.3062 70.3652C87.4572 70.3443 88.1343 69.235 88.2489 69.1048C89.5562 67.61 91.1083 66.3027 92.6707 65.0839C95.8374 62.6152 107.244 56.0943 111.66 56.3079M114.884 48.2714C115.728 48.7974 117.572 49.8651 118.379 50.4485C120.973 52.3339 124.499 55.7402 126.572 58.1829M109.254 47.7818C110.796 48.2974 112.259 49.0162 113.665 49.8183C118.79 52.7245 123.306 57.1985 127.02 61.7558M104.16 48.7349C105.499 49.2193 109.4 51.0214 110.348 51.5474C116.358 54.8756 122.848 59.8079 126.702 65.6412M99.3686 50.7037C100.634 50.2714 106.124 53.0787 107.27 53.6568C114.145 57.1204 121.973 62.2402 126.233 68.8964M102.848 94.4434C97.6916 90.5111 89.6343 82.5683 87.9468 77.6673M108.348 95.3496C107.525 95.3288 106.067 94.1621 105.41 93.7663C97.9572 89.2611 91.3999 81.485 87.8114 73.6673M109.421 93.9277C103.785 90.7506 93.5301 79.3079 90.9416 73.8287M111.468 92.36C111.582 92.7402 100.275 84.9225 95.1395 74.1881M113.056 91.3079C111.603 90.2871 108.671 88.0006 107.405 86.7558C103.504 82.9277 100.556 78.8964 98.3322 73.9381M119.311 93.7559C120.655 92.5423 121.941 90.6465 123.113 89.2663C127.176 84.4642 130.671 78.8808 132.634 72.8704C132.738 72.5527 133.754 68.2818 133.259 67.985M112.426 95.5788C113.343 94.9329 114.66 93.6934 115.52 92.9694C118.165 90.735 120.556 88.1621 122.619 85.3756C128.509 77.4277 131.639 68.6048 129.796 58.7662M107.389 95.4798C107.785 95.3392 108.16 95.1361 108.525 94.9277C109.478 94.3704 110.384 93.7194 111.264 93.0527C114.374 90.7142 117.014 87.8548 119.322 84.7298C125.78 75.9694 129.035 64.6933 125.811 54.0266M110.337 47.7714C123.155 47.7714 133.566 58.5058 133.566 71.7298C133.566 84.9538 123.155 95.6934 110.337 95.6934C97.5197 95.6934 87.1083 84.9538 87.1083 71.7298C87.1083 58.5058 97.5197 47.7714 110.337 47.7714Z" stroke="#F7D08A" stroke-width="1.18102" stroke-miterlimit="10" stroke-linecap="round" stroke-linejoin="round"/>
<path d="M82.9316 20.2037C82.9316 22.3652 81.2597 24.1204 79.2024 24.1204C77.218 24.1204 75.593 22.4849 75.4836 20.4329C75.3691 20.3756 75.2753 20.287 75.218 20.162C74.6972 19.1047 73.3899 18.912 72.3274 19.1881C71.9159 19.2922 71.6034 19.4433 71.3795 19.6464C71.3274 19.6881 71.2753 19.7193 71.2128 19.7454C70.692 21.2141 69.3534 22.261 67.7857 22.261C65.7649 22.261 64.1243 20.5266 64.1243 18.386C64.1243 16.2454 65.7649 14.511 67.7857 14.511C69.7597 14.511 71.3691 16.1672 71.442 18.2402C71.6243 18.162 71.817 18.0995 72.0305 18.0422C73.2701 17.7193 74.7545 17.886 75.7076 18.8443C76.2336 17.3495 77.5982 16.287 79.2024 16.287C81.2597 16.287 82.9316 18.0422 82.9316 20.2037Z" fill="#100F0D"/>
<path d="M53.5615 93.3184C54.0042 93.0164 54.4521 92.7351 54.9208 92.4799C56.374 91.6934 57.9833 90.9695 59.6187 90.6778M39.2959 91.0893C40.3584 89.2611 42.7855 87.8966 44.6917 87.1466M47.0563 93.6726C49.3011 91.7507 51.9156 90.4226 54.8479 89.9434M34.0355 91.1518C35.6293 89.1153 37.7595 87.2143 40.098 86.0736M84.0874 65.5475C83.9207 64.36 87.3061 61.1413 88.2436 60.2923M80.6707 65.8288C80.5874 65.7194 81.4155 64.3548 81.7332 63.8288C82.9207 61.8757 84.3322 60.0319 86.0457 58.5163" stroke="#7284A8" stroke-width="1.18102" stroke-miterlimit="10" stroke-linecap="round" stroke-linejoin="round"/>
</svg>
