<svg width="108" height="109" viewBox="0 0 108 109" fill="none" xmlns="http://www.w3.org/2000/svg">
<path fill-rule="evenodd" clip-rule="evenodd" d="M59.3254 34.8854C59.3254 35.1094 59.1379 35.2917 58.9036 35.2917C58.6692 35.2917 58.4765 35.1094 58.4765 34.8854C58.4765 34.6667 58.6692 34.4844 58.9036 34.4844C59.1379 34.4844 59.3254 34.6667 59.3254 34.8854ZM57.7161 32.8021C57.7161 33.026 57.539 33.2083 57.3202 33.2083C57.0963 33.2083 56.9192 33.026 56.9192 32.8021C56.9192 32.5781 57.0963 32.3958 57.3202 32.3958C57.539 32.3958 57.7161 32.5781 57.7161 32.8021ZM56.4452 30.8177C56.4504 31.0573 56.2577 31.2552 56.0181 31.2604C55.7786 31.2656 55.5806 31.0729 55.5806 30.8333C55.5754 30.5938 55.7681 30.3958 56.0077 30.3958C56.2421 30.3906 56.44 30.5781 56.4452 30.8177ZM55.1952 28.7188C55.1952 28.974 55.0025 29.1771 54.7629 29.1771C54.5286 29.1771 54.3359 28.974 54.3359 28.7188C54.3359 28.4688 54.5286 28.2656 54.7629 28.2656C55.0025 28.2656 55.1952 28.4688 55.1952 28.7188ZM55.3359 23.6667C55.1952 24.3385 54.6588 25.8958 52.664 25.8958L52.6588 26.5729V25.8958C51.5286 25.8958 50.4192 25.3854 49.8202 24.599C49.3254 23.9427 49.2057 23.1458 49.4609 22.224C49.9296 20.5365 50.8254 19.7135 52.19 19.7135C52.9504 19.7135 53.6171 19.9688 53.8671 20.0781C55.1327 20.6302 55.6067 22.3385 55.3359 23.6667ZM54.4036 18.8333C54.0754 18.6927 53.2004 18.3594 52.19 18.3594C51.0494 18.3594 49.0077 18.8125 48.1588 21.8594C47.69 23.5365 48.2161 24.7188 48.7421 25.4167C49.6015 26.5469 51.1015 27.25 52.6588 27.25H52.664C54.7056 27.25 56.2369 25.9792 56.6588 23.9427C57.039 22.1094 56.3775 19.6927 54.4036 18.8333Z" fill="#F7D08A"/>
<path d="M106.075 40.3959C102.7 36.5991 94.3359 39.3699 91.0911 42.0887C86.8255 45.6564 85.138 50.5105 83.3567 55.6564C82.539 58.0001 81.7005 60.4272 80.5963 62.7032C79.9557 64.0262 77.3515 68.6876 73.9245 72.6251C69.9036 77.2449 66.3255 79.1095 63.2682 78.1772C63.2057 78.6824 63.1432 79.1876 63.0755 79.6876C66.3203 80.4741 70.1588 77.6147 72.7057 75.7241C78.289 71.5678 82.013 65.4637 84.9192 60.0418C85.289 59.3543 85.6588 58.6355 86.0182 57.948C87.2109 55.6407 88.4453 53.2553 90.0286 51.1147C93.5911 46.2918 96.1224 46.1876 98.8047 46.0834C100.424 46.0209 102.096 45.9532 104.258 44.8387C105.44 44.2293 106.398 43.0991 106.586 42.0939C106.7 41.4637 106.534 40.9064 106.075 40.3959ZM62.5599 60.0001C62.5338 60.0157 62.4974 60.0366 62.4661 60.047C62.5026 60.0366 62.5338 60.0157 62.5599 60.0001ZM59.8828 31.9064C59.888 31.9428 59.8932 31.9845 59.8932 32.0314C59.8932 31.9845 59.888 31.9428 59.8828 31.9064ZM59.8828 31.8907C59.8724 31.8491 59.862 31.8126 59.8463 31.7709C59.862 31.8126 59.8724 31.8491 59.8828 31.8907ZM59.8411 31.7605C59.8255 31.7137 59.8047 31.6772 59.7786 31.6355C59.8047 31.6772 59.8255 31.7137 59.8411 31.7605ZM59.7526 31.5991C59.6797 31.5105 59.5911 31.4376 59.4922 31.3959C59.5963 31.4428 59.6849 31.5157 59.7526 31.5991ZM38.0703 22.3439C38.1067 22.3282 38.1484 22.3126 38.1901 22.3022C38.1484 22.3126 38.1067 22.3282 38.0703 22.3439ZM36.3672 24.5105C36.3672 24.4584 36.3724 24.4064 36.388 24.3543C36.3724 24.4064 36.3672 24.4584 36.3672 24.5105ZM107.914 42.3387C107.591 44.0834 106.075 45.4272 104.872 46.047C102.445 47.297 100.544 47.3751 98.862 47.4376C96.3047 47.5418 94.289 47.6199 91.112 51.922C89.5963 53.9793 88.388 56.3126 87.2161 58.573C86.8567 59.2657 86.487 59.9845 86.112 60.6876C83.1328 66.2397 79.3047 72.5001 73.5078 76.8126C70.7942 78.8334 66.7057 81.8751 62.888 81.0366C62.8099 81.5991 62.7213 82.1616 62.638 82.7189C62.5859 83.0522 62.2995 83.2918 61.9713 83.2918C61.9349 83.2918 61.9036 83.2918 61.8672 83.2866C61.4974 83.2293 61.2474 82.8803 61.3047 82.5105C62.0599 77.5418 62.7161 72.2501 62.3463 67.2397C62.164 64.7709 61.9557 62.7084 61.6953 60.7918C60.3359 62.3907 58.539 63.6251 56.3724 64.4428C55.0755 64.9324 53.9922 65.0834 52.8515 65.2501C52.2734 65.3334 51.6744 65.4168 51.0234 65.5522C50.6588 65.6303 50.3047 65.3907 50.2265 65.0262C50.1536 64.6564 50.388 64.297 50.7526 64.2241C51.4453 64.0834 52.0599 63.9949 52.6588 63.9064C53.7734 63.7449 54.737 63.6095 55.8932 63.172C62.013 60.8751 64.5911 55.0105 62.7995 47.4897C61.9922 44.1043 60.5547 40.9897 59.3828 38.6407C59.1692 38.7137 58.9453 38.7814 58.7161 38.8439C58.6588 38.8595 58.5963 38.8699 58.539 38.8699C58.2422 38.8699 57.9661 38.672 57.888 38.3699C57.7838 38.0105 57.9974 37.6355 58.3567 37.5366C60.7474 36.8751 62.2005 35.8647 63.0651 34.5001C62.9401 34.4272 62.8099 34.3543 62.6797 34.2814C61.8672 33.8387 61.013 33.4532 60.289 33.1303C59.9609 32.9845 59.6692 32.8595 59.3672 32.7605L59.3151 32.7501C59.0442 32.6772 58.4036 32.5105 58.5599 31.8595C58.6484 31.4949 59.013 31.2709 59.3776 31.3543C59.4036 31.3647 59.4349 31.3751 59.4661 31.3855C59.513 31.4012 59.6015 31.422 59.6588 31.4376C59.7161 31.4532 59.7578 31.4637 59.763 31.4689C60.1328 31.5834 60.4817 31.7345 60.8359 31.8907C61.5859 32.2189 62.4661 32.6251 63.3255 33.0939C63.4349 33.1512 63.5495 33.2137 63.6588 33.2762C63.9036 32.5939 64.0547 31.8387 64.138 31.0157C63.0755 30.7605 62.0234 30.5522 60.9609 30.3803C60.7682 30.3491 60.5495 30.297 60.3255 30.2449C59.9245 30.1512 59.3724 30.0209 59.1067 30.0678C58.737 30.1303 58.388 29.8803 58.3255 29.5157C58.263 29.1459 58.513 28.7918 58.8776 28.7293C59.414 28.6407 60.0599 28.7918 60.6328 28.9272C60.8359 28.9741 61.0286 29.0209 61.1745 29.0418C62.1901 29.2032 63.2005 29.4012 64.2213 29.6407C64.237 28.8387 64.2161 27.9845 64.1692 27.0678C63.5286 27.1407 62.888 27.2241 62.2474 27.323C60.9817 27.5157 59.9765 27.7189 59.0807 27.9637C58.987 27.9897 58.8776 28.0157 58.7682 28.0418C58.4817 28.1095 58.1067 28.198 57.8984 28.3282C57.7682 28.5001 57.5651 28.5991 57.3567 28.5991C57.2786 28.5991 57.2005 28.5834 57.1224 28.5522C56.789 28.4272 56.612 28.0626 56.7109 27.7241C56.7265 27.672 56.7474 27.6251 56.7734 27.5782C56.8047 27.5157 56.862 27.422 56.9557 27.3387C57.388 26.9741 57.9817 26.8334 58.4557 26.7189C58.5547 26.698 58.6484 26.6772 58.7317 26.6512C59.6745 26.3959 60.7265 26.1824 62.039 25.9793C62.7265 25.8751 63.4088 25.7866 64.0911 25.7137C64.0599 25.3595 64.0234 24.9428 63.987 24.5105C63.8567 23.0105 63.7109 21.3126 63.7682 20.2762C63.7786 20.1512 63.8047 20.0418 64.0286 19.2605C64.5703 17.3803 66.0026 12.4012 65.8776 9.83345C65.8724 9.75011 65.8724 9.65636 65.8672 9.5522C65.8099 8.08866 65.6745 7.38032 65.5338 7.0522C65.362 7.1147 65.112 7.21365 64.7942 7.34907C64.6901 7.39595 64.612 7.4272 64.5755 7.44282C63.0182 8.01053 61.513 8.78657 60.0963 9.74491C60.013 9.8022 59.9297 9.85949 59.8463 9.91678C59.5026 10.1564 59.2265 10.3595 58.9713 10.5574C58.8724 10.6407 58.4817 10.9845 58.1849 11.2657C58.5026 11.448 58.8151 11.5939 59.1172 11.6616C59.4817 11.7397 59.7109 12.1043 59.6328 12.4689C59.5547 12.8334 59.1901 13.0678 58.8255 12.9897C58.1276 12.8334 57.513 12.4532 56.9192 12.0834C56.4765 11.8074 56.0547 11.5418 55.638 11.4012C52.5338 10.3543 49.1536 9.94282 46.1172 10.2449C44.0495 10.4532 41.8255 11.0678 41.7995 11.073C41.4401 11.172 41.0703 10.9637 40.9713 10.5991C40.8672 10.2397 41.0807 9.8647 41.4401 9.76574C41.4922 9.75011 42.2317 9.54699 43.263 9.32824C42.4713 8.29178 41.789 7.26053 41.2161 6.35949C40.9036 5.87511 40.487 5.25532 39.9974 4.70845C39.0859 3.70845 38.638 3.60949 38.4505 3.64074C37.8463 3.7449 37.112 5.44803 36.8359 6.09386C35.9974 8.0522 35.138 10.1512 34.7109 12.2866C34.6328 12.6928 34.4974 14.2084 34.388 15.4272C34.2317 17.1407 34.2005 17.4428 34.1484 17.5991C33.9557 18.2449 33.6849 18.8595 33.3828 19.448C34.164 19.7866 34.9245 20.1512 35.664 20.547C36.4505 20.9637 37.2838 21.4168 38.0859 21.9532C38.0963 21.9584 38.1484 21.9949 38.2161 22.047C38.414 22.1928 38.5495 22.297 38.6172 22.3387C38.7213 22.3855 38.8203 22.4637 38.8932 22.5626C39.112 22.8647 39.0442 23.2918 38.7422 23.5105C38.612 23.6095 38.487 23.6512 38.362 23.6512C38.0963 23.6512 37.8203 23.4428 37.4036 23.1303C37.3724 23.1043 37.3463 23.0834 37.3307 23.073C36.5807 22.5782 35.7838 22.1407 35.0338 21.7449C34.2838 21.3439 33.5026 20.9741 32.7057 20.6303C32.4713 21.0157 32.2317 21.3907 31.9922 21.7657C31.9245 21.8647 31.8567 21.9689 31.7942 22.0678C32.8203 22.3387 33.8776 22.6564 34.9922 23.0366C35.612 23.2501 36.2161 23.4637 36.7786 23.6772C37.289 23.8543 37.8567 24.0574 37.6953 24.6876C37.6172 24.9949 37.3463 25.198 37.0442 25.198C36.987 25.198 36.9297 25.1928 36.8776 25.1772C36.7942 25.1564 36.7213 25.1199 36.6588 25.0782C36.612 25.0574 36.5182 25.0209 36.3359 24.9584L36.3047 24.9428C35.7526 24.7397 35.164 24.5262 34.5547 24.3178C33.3255 23.9012 32.1692 23.5574 31.0442 23.2762C30.6328 23.9845 30.2734 24.698 30.0286 25.4584C29.9505 25.7084 29.8828 25.948 29.8307 26.1772C30.3411 26.1251 30.8567 26.0782 31.3776 26.0418C32.4557 25.9637 33.5078 25.9168 34.5078 25.8959L34.6328 25.8907C34.9297 25.8855 35.237 25.8803 35.5442 25.8855C35.6484 25.8855 35.7474 25.9012 35.8359 25.9272C36.0755 25.8855 36.3255 25.9793 36.4817 26.1824C36.6692 26.4324 36.6849 26.7501 36.5182 27.0001C36.2422 27.422 35.763 27.3022 35.5859 27.2605C35.5547 27.2501 35.5234 27.2449 35.4974 27.2397C35.2213 27.2345 34.9505 27.2397 34.6588 27.2449L34.5338 27.2501C33.5599 27.2709 32.5286 27.3178 31.4713 27.3959C30.8672 27.4376 30.2682 27.4949 29.6745 27.5574C29.7161 30.4584 32.3151 31.8647 35.2422 33.4532L35.513 33.5991C35.8411 33.7762 35.9609 34.1876 35.7838 34.5157C35.6067 34.8439 35.1953 34.9689 34.8672 34.7918L34.6015 34.6459C34.1432 34.3959 33.6797 34.1459 33.2213 33.8855C33.1536 33.8959 33.0911 33.9012 33.0234 33.8959C32.0755 34.3803 31.164 35.0209 30.2786 35.6459L30.1432 35.7397C26.3151 38.4324 23.7682 41.0105 22.1328 43.8699C18.5078 50.1876 21.4192 55.3543 24.4974 58.573C26.2734 60.4272 27.9036 61.547 29.487 61.9949C29.8463 62.0939 30.0547 62.4689 29.9557 62.8282C29.8724 63.1303 29.6015 63.323 29.3047 63.323C29.2422 63.323 29.1849 63.3178 29.1224 63.297C27.2995 62.7814 25.4661 61.5418 23.5234 59.5105C22.8828 58.8387 22.3099 58.1564 21.8047 57.4584C21.6588 57.8022 21.4713 58.2553 21.4297 58.3543C21.1745 59.1616 20.9297 60.0574 20.6797 61.0939C20.1224 63.4272 19.4453 66.8543 19.414 69.922C19.4088 70.297 19.1067 70.5939 18.737 70.5939H18.7317C18.3567 70.5887 18.0547 70.2814 18.0599 69.9064C18.0963 66.7137 18.789 63.1772 19.3672 60.7762C19.6224 59.7032 19.8776 58.7709 20.1484 57.9324C20.1849 57.8126 20.4609 57.1668 20.4713 57.1355C20.6901 56.6251 20.8099 56.3439 20.9713 56.198C20.1276 54.7814 19.5651 53.323 19.289 51.8387C18.7578 48.9637 19.3203 46.0522 20.9609 43.1928C22.7005 40.1564 25.3724 37.4376 29.3672 34.6303L29.5026 34.5366C30.2422 34.0157 31.0026 33.4793 31.8099 33.0157C29.9245 31.7501 28.3984 30.1616 28.3203 27.7241C25.9505 28.047 23.7734 28.4949 21.9974 28.8855C21.9505 28.8959 21.9036 28.9012 21.8515 28.9012C21.5442 28.9012 21.263 28.6824 21.1953 28.3699C21.112 28.0001 21.3463 27.6407 21.7109 27.5626C23.5807 27.1459 25.8984 26.672 28.4192 26.3439C28.4922 25.9324 28.5963 25.5001 28.7422 25.0418C28.9765 24.3074 29.3047 23.6199 29.6692 22.9637C28.9036 22.8022 28.1484 22.672 27.3932 22.573C27.0234 22.5209 26.763 22.1824 26.8151 21.8074C26.862 21.4376 27.2005 21.1772 27.5755 21.2241C28.513 21.3491 29.4505 21.5209 30.4036 21.7293C30.5547 21.4949 30.7057 21.2605 30.8567 21.0262C31.0547 20.7189 31.2474 20.4168 31.4349 20.1147C29.4505 19.3491 27.3724 18.7657 25.2838 18.3803C24.914 18.3126 24.6745 17.9584 24.737 17.5939C24.8047 17.2241 25.1588 16.9793 25.5234 17.047C27.7682 17.4584 30.0026 18.0939 32.1276 18.9272C32.414 18.3751 32.6692 17.8178 32.8515 17.2293C32.8828 17.0314 32.9661 16.1147 33.039 15.3074C33.1901 13.6616 33.2995 12.4637 33.388 12.0262C33.8359 9.75532 34.7265 7.58345 35.5963 5.5574C36.4192 3.63553 37.1172 2.4897 38.2265 2.3022C39.3151 2.1199 40.2786 3.00532 40.9974 3.79699C41.5547 4.41678 42.013 5.09907 42.3515 5.62511C43.013 6.66157 43.8151 7.8699 44.763 9.0522C45.164 8.9897 45.5755 8.93761 45.987 8.89595C49.2057 8.57824 52.7838 9.01053 56.0703 10.1199C56.3932 10.2241 56.6953 10.3751 56.987 10.5418C57.1067 10.422 57.2526 10.2814 57.4349 10.1147C57.7265 9.84386 58.0807 9.53136 58.1432 9.48449C58.414 9.27095 58.7109 9.05741 59.0755 8.8022C59.1588 8.7449 59.2474 8.68241 59.3359 8.62511C60.8463 7.59907 62.4505 6.77615 64.112 6.16678C64.138 6.15636 64.1901 6.13553 64.2578 6.10428C65.2786 5.66678 65.8776 5.43241 66.3099 5.83345C67.039 6.50011 67.1588 8.01053 67.2161 9.50011C67.2213 9.59907 67.2265 9.68761 67.2265 9.76574C67.3672 12.5574 65.9401 17.5157 65.3307 19.6355C65.237 19.9532 65.1432 20.2866 65.1172 20.3959C65.0651 21.3439 65.2161 23.0314 65.3359 24.3907C65.3724 24.823 65.4088 25.2345 65.4349 25.5939C67.8203 25.4272 70.1536 25.4689 72.414 25.7293C72.7838 25.7762 73.0495 26.1095 73.0078 26.4845C72.9661 26.8543 72.6328 27.1251 72.2578 27.0782C70.0807 26.8282 67.8203 26.7814 65.5182 26.948C65.5703 27.9845 65.5963 28.9949 65.5599 29.9689C67.4557 30.4741 69.3984 31.1147 71.4713 31.9168C71.8203 32.0522 71.9922 32.448 71.8567 32.797C71.7526 33.0626 71.4974 33.2293 71.2265 33.2293C71.1432 33.2293 71.0599 33.2137 70.9817 33.1824C69.0442 32.4324 67.2265 31.8282 65.4557 31.3491C65.3463 32.2501 65.164 33.1043 64.8567 33.8959C64.8463 33.9272 64.8359 33.9532 64.8255 33.9793C66.5963 35.1095 68.2682 36.4532 70.1224 38.0522C70.4036 38.297 70.4349 38.7241 70.1953 39.0053C70.0599 39.1616 69.8724 39.2449 69.6797 39.2449C69.5234 39.2449 69.3672 39.1876 69.2422 39.0782C67.4713 37.5574 65.8828 36.2709 64.2161 35.198C63.4192 36.4741 62.2526 37.4428 60.6536 38.1564C61.8463 40.5522 63.289 43.7137 64.112 47.172C65.0026 50.9064 64.8724 54.4376 63.7265 57.3751C63.4765 58.0105 63.1849 58.6199 62.8411 59.1876C62.8515 59.2137 62.8567 59.2397 62.8672 59.2657C62.8828 59.3491 62.888 59.4272 62.8776 59.5001C62.888 59.5834 62.9088 59.7657 62.9765 60.1876C62.987 60.2345 62.9922 60.2709 62.9922 60.2814C63.2734 62.323 63.4974 64.5001 63.6901 67.1355C63.9245 70.3126 63.763 73.573 63.4245 76.797C69.6067 79.0782 77.9609 65.0366 79.3776 62.1147C80.4505 59.9012 81.2786 57.5157 82.0807 55.2084C83.8463 50.1199 85.6692 44.8543 90.2265 41.047C93.914 37.9584 103.117 35.0262 107.086 39.4897C107.82 40.3178 108.107 41.3022 107.914 42.3387ZM17.9088 99.5939C16.7786 99.7032 15.487 99.9376 14.1172 100.188C9.83591 100.974 4.50258 101.948 1.80466 99.1355C1.68487 99.0105 1.10674 98.3595 1.47133 97.8022C2.40362 96.3751 4.2682 95.3855 6.07549 94.4324C7.20049 93.8334 8.36716 93.2189 9.27862 92.4949C10.7942 91.3074 12.8047 88.8022 13.6745 87.0314C13.8411 86.6928 13.7005 86.2866 13.3672 86.1199C13.0286 85.9584 12.6276 86.0939 12.4609 86.4324C11.6901 88.0001 9.77862 90.3803 8.44528 91.4272C7.62757 92.073 6.56508 92.6355 5.44528 93.2293C3.48695 94.2657 1.46612 95.3387 0.341117 97.0574C-0.252633 97.9637 -0.0599233 99.1459 0.830701 100.078C2.51299 101.828 4.88278 102.37 7.42445 102.37C9.73174 102.37 12.1745 101.922 14.362 101.521C15.7005 101.276 16.9661 101.047 18.0338 100.943C18.4088 100.912 18.6797 100.578 18.6432 100.208C18.612 99.8334 18.2786 99.5626 17.9088 99.5939ZM57.9453 50.7762C57.8984 50.4012 57.5547 50.1407 57.1849 50.1928C53.0078 50.7501 48.7161 52.8907 45.414 56.0678C44.3151 57.1303 43.3515 58.2397 42.5547 59.3699C42.2474 59.797 41.987 60.198 41.7578 60.5939C41.7526 60.6043 41.7474 60.6147 41.7422 60.6251C40.2422 56.6564 36.8359 52.3282 33.3255 49.9637C32.9453 49.7084 32.4661 49.448 31.9557 49.1772C31.0182 48.6772 29.8515 48.0522 29.4505 47.4584C29.2422 47.1459 28.8203 47.0678 28.513 47.2762C28.2005 47.4845 28.1224 47.9064 28.3307 48.2189C28.9245 49.0887 30.1953 49.7709 31.3203 50.3751C31.7942 50.6303 32.2474 50.8699 32.5703 51.0887C35.9401 53.3543 39.3255 57.7397 40.6224 61.5157C40.7161 61.797 40.9765 61.9689 41.2526 61.9741C41.2942 62.0782 41.3672 62.172 41.487 62.2657C41.5963 62.3543 41.7422 62.4116 41.9036 62.4116C42.0755 62.4116 42.263 62.3439 42.4297 62.1772C42.5338 62.0678 42.5963 61.9324 42.6172 61.797C42.6797 61.6876 42.7578 61.5574 42.8099 61.4741C42.8567 61.3959 42.8984 61.3282 42.9244 61.2762C43.138 60.9168 43.3724 60.5522 43.6536 60.1512C44.4036 59.0939 45.3099 58.0522 46.3515 57.047C49.4505 54.0626 53.4609 52.0574 57.362 51.5366C57.737 51.4845 57.9974 51.1459 57.9453 50.7762ZM65.8463 93.4064C65.0547 92.9116 64.3099 92.448 63.8151 91.9845C63.5026 91.6928 63.2265 91.4949 62.9817 91.323C62.6015 91.0522 62.3515 90.8751 62.1015 90.4168C61.9245 90.0887 61.513 89.9637 61.1849 90.1459C60.8567 90.323 60.737 90.7397 60.914 91.0678C61.3151 91.8022 61.7682 92.1251 62.2057 92.4324C62.4192 92.5834 62.6484 92.7449 62.888 92.9741C63.4817 93.5314 64.2838 94.0314 65.1328 94.5574C66.9974 95.7137 68.9192 96.9064 68.7213 98.7293C68.6432 99.4532 68.3255 100.026 67.7474 100.49C65.2213 102.516 58.7057 101.761 55.5755 101.401C55.237 101.359 54.9297 101.323 54.664 101.297C54.289 101.255 53.9557 101.526 53.9192 101.901C53.8776 102.271 54.1484 102.604 54.5182 102.646C54.7838 102.672 55.0859 102.708 55.4192 102.745C57.0599 102.938 59.3463 103.198 61.6328 103.198C64.3151 103.198 66.9922 102.833 68.5911 101.552C69.4557 100.859 69.9505 99.9584 70.0651 98.8751C70.3567 96.2032 67.8515 94.6512 65.8463 93.4064ZM44.4297 21.7866C44.6953 20.6564 41.112 20.0939 40.9297 21.2189C40.789 22.0887 44.2422 22.5834 44.4297 21.7866ZM54.0859 23.5209C54.3515 22.3907 50.7682 21.823 50.5859 22.9532C50.4453 23.8178 53.8984 24.3126 54.0859 23.5209ZM40.4505 28.0939C41.987 28.6407 44.3984 26.6199 45.1276 25.8647C45.1276 25.8595 45.1328 25.8543 45.138 25.8491C45.3724 25.6147 45.7474 25.5834 46.0182 25.7814C46.1797 25.9012 46.2734 26.0782 46.289 26.2657C46.5182 26.8022 47.6588 29.1876 49.9401 29.2397C50.3151 29.2501 50.6067 29.5626 50.6015 29.9376C50.5911 30.3074 50.289 30.5991 49.9245 30.5991C49.9192 30.5991 49.914 30.5991 49.9088 30.5991C47.4245 30.5418 46.0078 28.6303 45.3776 27.4741C45.0182 27.7762 44.5859 28.1147 44.1484 28.4012C42.5547 29.4584 41.1588 29.7866 39.9974 29.3751C39.6484 29.2501 39.4609 28.8595 39.5859 28.5053C39.7109 28.1564 40.0963 27.9689 40.4505 28.0939Z" fill="#7284A8"/>
<path fill-rule="evenodd" clip-rule="evenodd" d="M54.2109 9.4429C54.2109 9.4429 57.4505 3.46374 56.8723 2.14603C56.1119 0.390821 49.7473 -0.0102214 47.7942 0.000195937C46.3255 0.0106119 46.94 7.9377 46.94 7.9377C46.94 7.9377 41.3307 7.95332 43.9557 9.64082C49.0546 12.9169 53.9192 13.0523 56.4453 12.0679C58.4557 11.2867 54.2109 9.4429 54.2109 9.4429ZM50.6588 34.2085C51.2942 34.896 50.638 39.2085 50.2525 39.4637C50.0025 39.6252 46.4609 38.9533 46.0234 37.5471C46.0234 37.5471 44.4244 38.4742 43.1171 36.9533C42.4765 37.5054 39.2682 38.8596 38.7838 38.1044C38.039 36.9481 39.0807 32.5575 39.5546 32.5054C41.2578 32.3179 43.5338 34.8075 43.5338 34.8075C45.0025 34.0992 45.7942 34.37 46.4661 35.3387C46.5494 35.4064 50.0286 33.521 50.6588 34.2085Z" fill="#19191C"/>
<path d="M60.7213 92.0677C60.5442 92.0677 60.3724 92 60.237 91.8646C55.5911 87.1198 51.5494 80.651 49.1536 74.125C48.3828 72.0312 47.7109 69.8542 47.1484 67.6458C46.9713 66.9375 46.7838 66.1823 46.6172 65.4167C46.539 65.0625 46.4869 64.7865 46.4401 64.526C46.4349 64.5104 46.4297 64.4948 46.4244 64.4792C46.2942 64.0729 46.3672 63.7656 46.638 63.5677C46.8828 63.3906 47.2109 63.3958 47.4609 63.5781C47.638 63.7135 47.7317 63.9167 47.7317 64.125C47.7474 64.1719 47.763 64.224 47.7682 64.276C47.8099 64.526 47.8619 64.7865 47.9401 65.1302C48.1015 65.875 48.2838 66.6198 48.4609 67.3125C49.0078 69.474 49.6692 71.6094 50.4192 73.6563C52.7526 80.0104 56.6849 86.3021 61.2005 90.9167C61.4609 91.1823 61.4609 91.6094 61.1953 91.875C61.0599 92.0052 60.8932 92.0677 60.7213 92.0677ZM15.8567 95.7292C15.6276 95.7292 15.4036 95.6146 15.2786 95.401C14.8776 94.7344 14.9817 93.0677 15.3151 90.2188C15.3515 89.8906 15.3828 89.6094 15.3932 89.4635C15.9244 82.974 18.5078 76.7083 23.2942 70.3125C24.9453 68.099 26.5442 66.2083 28.1744 64.526C28.3463 64.3542 28.5755 64.1094 28.8359 63.8333C29.4765 63.1667 30.2682 62.3333 30.7109 61.9167C30.9869 61.6667 31.414 61.6823 31.6692 61.9531C31.9192 62.2292 31.9036 62.6563 31.6328 62.9115C31.2161 63.2969 30.4401 64.1146 29.8151 64.7708C29.5494 65.0521 29.3151 65.2969 29.1432 65.474C27.5547 67.1094 25.9922 68.9583 24.3724 71.125C19.7422 77.3125 17.2474 83.349 16.7422 89.5729C16.7265 89.7448 16.6953 90.0208 16.6536 90.375C16.5494 91.3125 16.2161 94.1667 16.4453 94.7135C16.6276 95.0365 16.5234 95.4427 16.2057 95.6354C16.0963 95.6979 15.9765 95.7292 15.8567 95.7292ZM58.4713 95.9792C58.3463 95.9792 58.2161 95.9427 58.1015 95.8698C54.4765 93.5104 51.3776 88.625 49.414 84.9427C47.2057 80.8021 45.2369 75.901 44.2786 72.151C43.6172 69.5833 43.1484 67.25 42.8411 65.0104C42.8411 64.9948 42.8307 64.9375 42.8151 64.8594C42.4765 63.125 42.4088 62.5417 42.9609 62.25C43.289 62.0729 43.7005 62.1979 43.8724 62.5313C43.9713 62.7135 43.9765 62.9219 43.9036 63.099C43.9088 63.2552 43.9505 63.6458 44.138 64.599C44.164 64.7187 44.1797 64.8021 44.1797 64.8281C44.4817 67.0104 44.9401 69.2969 45.5859 71.8125C47.4297 79.0052 53.0651 90.974 58.8411 94.7344C59.1536 94.9375 59.2422 95.3542 59.039 95.6719C58.9088 95.8698 58.6901 95.9792 58.4713 95.9792ZM30.164 71.9583C29.5494 72.6823 29.0494 73.3073 28.7317 73.7604C27.9765 74.8385 27.2734 75.9062 26.6172 76.9583C27.539 76.3177 28.4557 75.7448 29.3619 75.2552C33.3567 73.0729 36.8151 71.875 39.664 71.6875C39.5755 70.6979 39.5286 69.7292 39.5234 68.7865C37.4817 69.0052 35.4869 69.3229 33.5442 70.224C32.6797 70.6198 31.8359 71.1302 31.0234 71.625L30.6119 71.8698C30.4713 71.9531 30.3151 71.9844 30.164 71.9583ZM24.8099 80.0781C23.9036 81.7552 23.1276 83.4115 22.4713 85.0469C26.4453 82.3073 32.4817 80.0469 36.3463 79.401C36.6067 79.3594 36.914 79.2969 37.2369 79.2292C38.388 78.9948 39.7734 78.7083 40.914 78.8802C40.7057 78.0938 40.5234 77.2917 40.3619 76.4896C40.1276 75.3177 39.9401 74.1615 39.8047 73.0365C37.1484 73.1979 33.8567 74.3385 30.0078 76.4427C28.9765 77.0052 27.9244 77.6771 26.8776 78.4375L26.8203 78.4792C26.3567 78.8125 25.8776 79.1615 25.4557 79.5313C25.3776 79.599 25.0078 79.9271 24.9453 79.9792C24.9401 79.9844 24.9349 79.9896 24.9297 79.9948C24.8932 80.026 24.8515 80.0521 24.8099 80.0781ZM36.0338 87.1198C37.9609 87.1198 40.2057 87.5521 42.8099 88.4271C43.7109 88.724 44.5026 89.026 45.2213 89.3333C44.3828 87.901 43.6328 86.4115 42.9713 84.875C42.9609 84.875 42.9453 84.875 42.9349 84.875C39.7578 84.875 36.638 85.5312 33.7786 86.4323C33.8255 86.7448 33.8672 87.0365 33.9036 87.3229C34.5703 87.1875 35.2786 87.1198 36.0338 87.1198ZM21.6692 87.2344C21.2682 88.4427 20.9349 89.6458 20.6692 90.8385C20.7422 90.7969 20.8203 90.75 20.8984 90.6979C21.4088 90.3906 21.9661 90.0625 22.1536 89.9583C23.5442 89.1927 25.1015 88.4375 27.0547 87.5781C31.2057 85.7396 36.6744 83.6458 42.4192 83.5208C42.013 82.4792 41.6432 81.4167 41.3203 80.3385C41.2369 80.3438 41.1432 80.3333 41.0599 80.3021C40.1797 80.0104 38.638 80.3281 37.5078 80.5573C37.1692 80.6302 36.8515 80.6927 36.5703 80.7396C32.3984 81.4323 25.5547 84.151 22.013 87.0885C21.914 87.1719 21.7942 87.2188 21.6692 87.2344ZM34.4244 91.1875C35.3047 91.2135 36.1067 91.2188 36.8828 91.2188C39.664 91.224 42.0651 91.2292 45.5286 92.5417C46.3984 92.8698 47.263 93.2396 48.1119 93.6406C47.5442 92.901 47.0078 92.151 46.4922 91.375C46.4244 91.3646 46.3515 91.3385 46.289 91.3073C46.1067 91.2135 45.6953 91.0313 45.3984 90.8958C45.2578 90.8385 45.138 90.7813 45.0494 90.7396C44.2734 90.3906 43.3984 90.0521 42.388 89.7135C38.9349 88.5573 36.2109 88.2188 34.0859 88.6667C34.0911 88.7344 34.1015 88.7969 34.1067 88.8594C34.1744 89.3594 34.2422 89.8802 34.3203 90.4792C34.3515 90.7135 34.388 90.9479 34.4244 91.1875ZM40.539 95.7188C43.4297 95.7188 46.6484 96.2448 50.1588 97.3021C50.3567 97.3594 51.1015 97.625 51.9609 97.9531C51.3724 97.3802 50.7942 96.7865 50.2422 96.1771C50.1744 96.1667 50.1119 96.1406 50.0494 96.1094C49.7786 95.9583 49.2317 95.6927 48.789 95.474C48.6015 95.3802 48.4244 95.2969 48.2994 95.2344C47.2422 94.7083 46.1484 94.2292 45.0547 93.8125C41.8203 92.5833 39.638 92.5781 36.8828 92.5729C36.1744 92.5729 35.4557 92.5729 34.6692 92.5521C34.9088 93.7656 35.2161 95.026 35.5963 96.3229C35.638 96.3073 35.6797 96.2917 35.7213 96.2813C37.2109 95.9063 38.8151 95.7188 40.539 95.7188ZM35.6119 108.797C35.164 108.797 34.9609 108.37 34.7942 108.016C34.7526 107.938 34.6953 107.813 34.6744 107.776C34.388 107.313 34.1536 106.833 33.9244 106.37L33.888 106.297C33.1484 104.786 32.5234 103.198 31.9817 101.443L31.9401 101.302C30.9609 98.151 29.0078 91.8281 29.138 88.1563C28.6067 88.375 28.0911 88.599 27.5963 88.8177C27.2057 88.9896 26.8307 89.1615 26.4661 89.3229C26.138 92.9896 27.039 97.1823 29.2213 102.141C29.763 103.38 30.4869 104.557 31.3672 105.641C31.6536 105.995 31.9297 106.292 32.2057 106.552C32.2369 106.573 32.3047 106.609 32.3463 106.63C32.5859 106.766 32.9922 106.99 32.9557 107.469C32.9401 107.75 32.7578 107.99 32.4869 108.099C32.1692 108.224 31.8099 108.089 31.6484 107.797C31.5286 107.729 31.4036 107.651 31.2942 107.557C30.9713 107.25 30.6536 106.906 30.3203 106.495C29.3619 105.323 28.5755 104.042 27.9817 102.688C25.8567 97.8594 24.8984 93.6927 25.0703 89.9844C24.2474 90.3802 23.5026 90.7656 22.8047 91.151C22.7526 91.1771 22.6797 91.2187 22.5963 91.2656C22.263 94.2031 22.8984 97.2031 24.638 100.995C25.0859 101.969 25.6328 102.938 26.3099 103.958C26.4817 104.224 26.6744 104.521 26.8828 104.792C26.9036 104.828 26.9765 104.911 27.0338 104.974C27.2994 105.276 27.664 105.693 27.3255 106.161C27.164 106.38 26.8307 106.536 26.4609 106.375C26.2682 106.292 26.1328 106.125 26.0807 105.938C26.0599 105.911 26.039 105.891 26.0182 105.87C25.9349 105.771 25.8515 105.682 25.7942 105.604C25.5703 105.297 25.3619 104.984 25.1797 104.708C24.4661 103.63 23.888 102.599 23.414 101.568C21.7526 97.9583 21.0442 94.9948 21.1744 92.125C21.0182 92.2188 20.8932 92.3021 20.8151 92.3542C20.7005 92.4948 20.5234 92.5833 20.3307 92.5885C19.888 95.224 19.7734 97.8438 19.9765 100.479C20.0078 100.854 19.7265 101.182 19.3567 101.208C18.9817 101.24 18.6588 100.958 18.6328 100.583C17.9349 91.5313 20.7942 82.7604 27.6224 72.9792C28.9088 71.1458 32.9557 66.8073 35.6328 63.9427C36.6901 62.8073 37.6901 61.7344 37.9088 61.4688C38.0599 61.1823 38.4036 61.0365 38.7213 61.1406C38.9401 61.2135 39.1067 61.3906 39.164 61.6146C39.263 62.0104 39.1432 62.1406 38.3463 63.0156C37.9192 63.4792 37.3151 64.1198 36.6224 64.8698C35.4505 66.125 34.013 67.6615 32.6692 69.1406C32.7734 69.0885 32.8724 69.0365 32.9817 68.9896C35.1484 67.9896 37.3984 67.6458 39.539 67.4219C39.5442 67.2656 39.5547 67.1094 39.5599 66.9531C39.6224 65.6458 39.7057 64.0156 40.2578 62.5885C40.4661 62.0677 40.6901 61.8281 41.013 61.7656C41.2526 61.724 41.4974 61.8073 41.6588 61.9896C41.914 62.2656 41.8932 62.6927 41.6172 62.9479C41.5963 62.9635 41.5755 62.9792 41.5547 62.9948C41.539 63.026 41.5234 63.0625 41.513 63.0938C41.0442 64.3021 40.9713 65.8073 40.9088 67.0208C40.8307 68.625 40.8828 70.3073 41.0547 72.0573C41.0963 72.1406 41.1172 72.2396 41.1172 72.3385C41.1172 72.3906 41.1119 72.4375 41.1015 72.4844C41.2369 73.6979 41.4297 74.9479 41.6849 76.2188C43.5911 85.724 48.7369 94.099 56.1744 99.7969C56.4713 100.026 56.5286 100.448 56.2994 100.75C56.0911 101.021 55.7213 101.089 55.4297 100.927C55.3463 100.969 55.2474 100.995 55.1432 100.995C54.8672 100.99 54.6328 100.833 54.5234 100.599C53.914 100.104 50.5026 98.8229 49.7682 98.599C44.4088 96.9896 39.7942 96.651 36.0547 97.5938C36.0338 97.599 36.013 97.6042 35.9869 97.6094C36.2265 98.3542 36.4869 99.1094 36.7682 99.875C36.789 99.8698 36.8047 99.8698 36.8255 99.8646C40.2786 99.4427 43.6901 99.7708 47.5703 100.911C48.7265 101.25 49.9088 101.646 51.1744 102.115C51.2682 102.151 51.388 102.208 51.5911 102.307C51.7786 102.396 52.1536 102.573 52.3099 102.625C52.6015 102.641 52.8619 102.844 52.9349 103.141C53.0234 103.505 52.7994 103.875 52.4401 103.964C52.1172 104.042 51.8099 103.911 51.0078 103.531C50.8984 103.474 50.7474 103.401 50.7057 103.385C49.4713 102.927 48.3203 102.542 47.1901 102.214C43.6015 101.156 40.4401 100.828 37.2682 101.182C37.7578 102.427 38.2317 103.453 38.7317 104.354C38.8567 104.234 39.0338 104.161 39.2213 104.167C41.4661 104.229 43.3359 104.349 45.1744 104.724C45.9453 104.875 46.5703 105.036 47.1536 105.229C47.4349 105.323 47.6849 105.417 47.9192 105.521C47.9297 105.526 47.9505 105.536 47.9713 105.542C48.1588 105.615 48.6536 105.813 48.5859 106.354C48.5494 106.667 48.3047 106.911 47.9817 106.953C47.789 106.979 47.6015 106.917 47.4609 106.797C47.4244 106.786 47.3932 106.771 47.3724 106.76C47.1797 106.677 46.9713 106.594 46.7317 106.516C46.2057 106.344 45.6224 106.193 44.9088 106.052C43.2317 105.714 41.5026 105.594 39.4401 105.526C39.4505 105.542 39.4557 105.552 39.4661 105.563C39.7682 106.016 40.1276 106.474 40.6015 106.995C40.6328 107.016 40.7005 107.052 40.7474 107.073C40.9869 107.198 41.3411 107.38 41.4244 107.792C41.4661 108.026 41.4036 108.266 41.2422 108.453C40.9974 108.734 40.5703 108.771 40.289 108.526C40.2057 108.453 40.1432 108.365 40.1015 108.266C39.9401 108.182 39.763 108.089 39.6224 107.932C39.0911 107.349 38.6849 106.833 38.3411 106.318C37.4505 104.974 36.6849 103.438 35.8724 101.328C34.3984 97.5 33.4244 93.9115 32.9817 90.6615C32.8984 90.0625 32.8307 89.5365 32.7682 89.0365C32.6744 88.3229 32.5911 87.6458 32.4765 86.8646C31.8099 87.099 31.164 87.3385 30.5338 87.5885C30.1015 90.7813 32.289 97.8698 33.2265 100.901L33.2734 101.042C33.7942 102.729 34.388 104.25 35.1015 105.698L35.138 105.771C35.3619 106.224 35.5703 106.656 35.8203 107.057C35.8828 107.161 35.9453 107.292 36.013 107.432C36.0234 107.458 36.039 107.484 36.0494 107.51C36.2317 107.646 36.3463 107.865 36.3307 108.104C36.3047 108.531 36.0078 108.734 35.763 108.786C35.7109 108.792 35.6588 108.797 35.6119 108.797ZM37.4297 62.151C32.7422 62.151 28.1797 63.6302 23.8828 66.5521C16.5755 71.5052 11.3047 83.5313 15.4192 92.8646C16.6484 95.6615 19.8515 100.818 22.0651 102.542C26.2005 105.75 31.9453 107.594 37.8359 107.594C44.763 107.594 50.8984 105.13 54.6797 100.833C58.7161 96.2448 60.9349 91.9844 61.2734 88.1667C61.9244 80.7969 60.2682 74.7656 56.3515 70.25C51.5703 64.7292 44.2422 62.4688 38.9817 62.1979C38.5494 62.1771 38.0286 62.151 37.4297 62.151ZM37.8359 108.948C31.6536 108.948 25.6015 107.005 21.2369 103.615C18.6432 101.594 15.3151 95.9844 14.1797 93.4167C12.2109 88.9427 12.1536 83.4479 14.013 77.9427C15.789 72.7135 19.1067 68.151 23.1224 65.4271C27.6536 62.3542 32.4661 60.7969 37.4297 60.7969C38.0599 60.7969 38.6015 60.8229 39.0494 60.8438C44.5911 61.1302 52.3099 63.5208 57.3724 69.3594C61.539 74.1667 63.3047 80.5365 62.6172 88.2865C62.2526 92.4583 59.987 96.8542 55.6953 101.734C51.6588 106.318 45.1484 108.948 37.8359 108.948Z" fill="#F7D08A"/>
<path fill-rule="evenodd" clip-rule="evenodd" d="M64.0078 9.78661C63.7057 9.23973 60.3046 11.2762 60.2161 11.8595C60.0807 12.771 62.3984 14.6564 63.0338 14.3074C63.664 13.9637 64.4713 10.646 64.0078 9.78661ZM38.6276 5.97411C37.6171 6.40119 36.6796 10.4949 37.0703 11.047C37.4609 11.6043 40.7161 10.1408 40.9713 9.29702C41.2317 8.44806 39.263 5.70848 38.6276 5.97411ZM46.8411 5.87515C46.8203 5.88556 46.9296 7.90119 46.9296 7.90119C46.9296 7.90119 48.539 8.8439 50.1171 9.25536C51.8984 9.7189 54.2526 9.46369 54.2526 9.46369L54.8828 8.14598C54.8828 8.14598 52.0546 8.03661 50.6432 7.61994C48.9765 7.13036 46.9088 5.84911 46.8411 5.87515ZM47.4296 24.3595C47.414 24.6929 46.4505 25.672 45.7473 25.5106C45.2786 25.4064 44.3359 24.4168 44.4713 23.8231C44.5859 23.3126 47.4661 23.4741 47.4296 24.3595Z" fill="#EEAAD3"/>
</svg>
