<svg width="24" height="24" viewBox="0 0 24 24" fill="none" xmlns="http://www.w3.org/2000/svg">
<path d="M16.98 13.2C16.79 13.2 16.59 13.12 16.45 12.98L11.05 7.57C10.8 7.32 10.76 6.94 10.95 6.64L12.64 3.97C13.11 3.23 13.82 2.77 14.65 2.68C15.58 2.59 16.54 2.95 17.29 3.7L20.32 6.73C21.04 7.45 21.4 8.42 21.29 9.38C21.2 10.22 20.75 10.95 20.05 11.39L17.38 13.08C17.26 13.16 17.12 13.2 16.98 13.2ZM12.53 6.94L17.09 11.5L19.26 10.13C19.57 9.93 19.77 9.61 19.81 9.22C19.87 8.72 19.66 8.19 19.27 7.8L16.24 4.77C15.81 4.34 15.29 4.11 14.82 4.18C14.44 4.22 14.13 4.43 13.91 4.78L12.53 6.94Z" fill="#292D32"/>
<path d="M5.89001 21.34C5.00001 21.34 4.20001 21.02 3.60001 20.43C2.90001 19.73 2.59001 18.76 2.72001 17.68L3.70001 9.35C4.00001 6.83 5.11001 5.91 7.70001 6.06L11.62 6.29C12.03 6.32 12.35 6.67 12.32 7.08C12.29 7.49 11.94 7.81 11.53 7.78L7.61001 7.56C5.83001 7.45 5.39001 7.8 5.19001 9.53L4.21001 17.85C4.14001 18.46 4.30001 19 4.66001 19.36C5.03001 19.72 5.57001 19.89 6.18001 19.81L14.5 18.83C16.25 18.62 16.64 18.16 16.47 16.44L16.23 12.49C16.21 12.08 16.52 11.72 16.93 11.7C17.34 11.67 17.7 11.99 17.72 12.4L17.95 16.32C18.19 18.81 17.21 20.01 14.66 20.32L6.34001 21.3C6.20001 21.33 6.04001 21.34 5.89001 21.34Z" fill="#292D32"/>
<path d="M4.60999 20.17C4.41999 20.17 4.22999 20.1 4.07999 19.95C3.78999 19.66 3.78999 19.18 4.07999 18.89L7.11999 15.85C7.40999 15.56 7.88999 15.56 8.17999 15.85C8.46999 16.14 8.46999 16.62 8.17999 16.91L5.13999 19.95C4.98999 20.1 4.79999 20.17 4.60999 20.17Z" fill="#292D32"/>
</svg>
