<svg width="26" height="26" viewBox="0 0 26 26" fill="none" xmlns="http://www.w3.org/2000/svg">
<path d="M13 10.9092C11.2667 10.9092 9.8475 9.48999 9.8475 7.75666C9.8475 6.02332 11.2667 4.60416 13 4.60416C14.7333 4.60416 16.1525 6.02332 16.1525 7.75666C16.1525 9.48999 14.7333 10.9092 13 10.9092ZM13 6.22916C12.155 6.22916 11.4725 6.91166 11.4725 7.75666C11.4725 8.60166 12.155 9.28416 13 9.28416C13.845 9.28416 14.5275 8.60166 14.5275 7.75666C14.5275 6.91166 13.845 6.22916 13 6.22916Z" fill="#7284A8"/>
<path d="M7.35584 21.3958C5.62251 21.3958 4.20334 19.9767 4.20334 18.2433C4.20334 16.51 5.62251 15.0908 7.35584 15.0908C9.08917 15.0908 10.5083 16.51 10.5083 18.2433C10.5083 19.9767 9.08917 21.3958 7.35584 21.3958ZM7.35584 16.7158C6.51084 16.7158 5.82834 17.3983 5.82834 18.2433C5.82834 19.0883 6.51084 19.7708 7.35584 19.7708C8.20084 19.7708 8.88334 19.0883 8.88334 18.2433C8.88334 17.3983 8.19001 16.7158 7.35584 16.7158Z" fill="#7284A8"/>
<path d="M18.6442 21.3958C16.9108 21.3958 15.4917 19.9767 15.4917 18.2433C15.4917 16.51 16.9108 15.0908 18.6442 15.0908C20.3775 15.0908 21.7967 16.51 21.7967 18.2433C21.7967 19.9767 20.3883 21.3958 18.6442 21.3958ZM18.6442 16.7158C17.7992 16.7158 17.1167 17.3983 17.1167 18.2433C17.1167 19.0883 17.7992 19.7708 18.6442 19.7708C19.4892 19.7708 20.1717 19.0883 20.1717 18.2433C20.1717 17.3983 19.4892 16.7158 18.6442 16.7158Z" fill="#7284A8"/>
</svg>
