<svg width="20" height="25" viewBox="0 0 20 25" fill="none" xmlns="http://www.w3.org/2000/svg">
<path d="M18.3175 16.9394L18.1219 16.8394C19.3767 15.1562 20.0383 13.0855 19.9983 10.9661C19.9583 8.84666 19.2191 6.80389 17.9017 5.17187C16.5843 3.53986 14.7666 2.4152 12.7458 1.98184C10.7251 1.54848 8.62098 1.83208 6.7776 2.78623L5.795 0.469045C5.74508 0.346403 5.66485 0.239269 5.56223 0.158242C5.45962 0.0772158 5.33818 0.0251046 5.20994 0.00706431C5.08169 -0.010976 4.95108 0.00567971 4.83103 0.0553837C4.71098 0.105088 4.60564 0.186118 4.52544 0.290457C4.42617 0.415846 4.36548 0.568727 4.35108 0.729647C4.33668 0.890567 4.36922 1.05225 4.44457 1.19412L5.65239 3.47112C4.81345 4.07291 4.07864 4.8148 3.47849 5.66598L1.23503 3.74793C1.15376 3.67858 1.05886 3.62807 0.956828 3.59985C0.854794 3.57164 0.748029 3.56638 0.643834 3.58444C0.539638 3.60249 0.440469 3.64345 0.353106 3.70449C0.265744 3.76553 0.192248 3.84523 0.137645 3.93813C0.0178269 4.12994 -0.0260436 4.36154 0.0150186 4.58549C0.0560809 4.80943 0.178969 5.00878 0.358513 5.14271L2.76893 6.84824C1.75275 8.85917 1.48075 11.1802 2.0033 13.3812C2.52586 15.5823 3.80756 17.5144 5.61098 18.8194C7.4144 20.1245 9.61731 20.7141 11.8116 20.4791C14.006 20.2441 16.043 19.2003 17.5454 17.5412L17.928 17.7386C18.3102 17.9347 18.6167 18.2576 18.7979 18.655C18.979 19.0524 19.0242 19.5009 18.9261 19.928C18.828 20.355 18.5923 20.7355 18.2572 21.0078C17.9222 21.2801 17.5074 21.4283 17.0801 21.4282H9.56541C9.10417 21.4282 8.66182 21.6164 8.33567 21.9513C8.00952 22.2862 7.82629 22.7405 7.82629 23.2141C7.82629 23.6878 8.00952 24.142 8.33567 24.4769C8.66182 24.8118 9.10417 25 9.56541 25H13.0436C13.159 25 13.2695 24.953 13.3511 24.8692C13.4326 24.7855 13.4784 24.6719 13.4784 24.5535C13.4784 24.4351 13.4326 24.3216 13.3511 24.2378C13.2695 24.1541 13.159 24.1071 13.0436 24.1071H9.56541C9.33479 24.1071 9.11361 24.013 8.95054 23.8455C8.78747 23.6781 8.69585 23.4509 8.69585 23.2141C8.69585 22.9773 8.78747 22.7502 8.95054 22.5827C9.11361 22.4152 9.33479 22.3212 9.56541 22.3212H17.0801C17.704 22.3224 18.3099 22.1071 18.7995 21.71C19.2891 21.313 19.6335 20.7576 19.7769 20.1341C19.9202 19.5106 19.854 18.8557 19.5891 18.2757C19.3242 17.6957 18.876 17.2248 18.3175 16.9394ZM16.328 16.1259C13.9738 15.1817 11.8486 13.7215 10.1006 11.847C8.35263 9.97261 7.02392 7.72912 6.20717 5.27308C6.23674 5.24808 6.26891 5.22665 6.29934 5.20165C6.7363 4.84772 7.21127 4.54633 7.71499 4.30335C7.84455 4.68463 7.98803 5.07038 8.14977 5.45614C8.27324 5.75795 8.40629 6.05977 8.54803 6.36158C8.91181 7.13819 9.33001 7.88666 9.79932 8.60109C10.2903 9.35529 10.8427 10.0653 11.4506 10.7236C12.0843 11.4094 12.7789 12.0329 13.5254 12.5863C14.2306 13.1071 14.98 13.5616 15.7645 13.9445C16.3081 14.2098 16.8668 14.4412 17.4375 14.6374C17.1778 15.1534 16.8615 15.6372 16.4949 16.0795C16.4367 16.0829 16.3799 16.0987 16.328 16.1259ZM9.24976 5.80706C10.2663 5.0302 11.3454 4.34264 12.4741 3.75329C13.2614 3.93353 14.0144 4.24578 14.7028 4.67749C13.0491 5.36385 11.479 6.2461 10.0245 7.30632C9.7424 6.81997 9.48383 6.31961 9.24976 5.80706ZM12.1263 10.1584C13.6505 8.86794 15.4729 8.00254 17.4175 7.64564C17.7088 8.21801 17.928 8.827 18.068 9.45742C16.4242 9.76112 14.8709 10.4502 13.5289 11.471C13.0329 11.0667 12.5642 10.6281 12.1263 10.1584ZM17.7862 13.8194C17.4488 13.703 17.1151 13.5759 16.7854 13.4382C17.1839 13.2732 17.5968 13.1473 18.0184 13.0622C17.9536 13.3174 17.8761 13.5689 17.7862 13.8159V13.8194ZM18.1949 12.1229C17.3404 12.2557 16.5128 12.5317 15.7454 12.9399C15.2345 12.6697 14.7408 12.3667 14.2671 12.0327C15.445 11.1749 16.7932 10.5955 18.2149 10.3361C18.2816 10.9299 18.2746 11.53 18.1941 12.122L18.1949 12.1229ZM16.9288 6.81966C14.9524 7.26066 13.1061 8.17725 11.5419 9.49403C11.1646 9.03882 10.8131 8.5618 10.4889 8.06532C12.0551 6.92253 13.7585 5.99214 15.5567 5.29719C16.0794 5.73823 16.541 6.25044 16.9288 6.81966ZM10.9784 3.5747C10.2489 3.97653 9.54367 4.423 8.86802 4.91412C8.74416 4.60174 8.62818 4.28613 8.5202 3.9676C9.27727 3.70531 10.0708 3.57082 10.8697 3.56935C10.9063 3.56935 10.9419 3.5747 10.9784 3.5747ZM4.95848 6.61696C5.10536 6.41573 5.26178 6.22202 5.42718 6.03655C5.45848 6.00173 5.48891 5.96512 5.52109 5.93118C6.38768 8.38417 7.74503 10.6236 9.50569 12.5051C11.2664 14.3866 13.3913 15.8686 15.7436 16.8555C15.2194 17.3292 14.6324 17.7242 14.0002 18.0288C13.2073 17.6491 12.4411 17.2131 11.7071 16.7242C11.0461 16.2835 10.4132 15.7997 9.81237 15.2758C9.12591 14.6779 8.48169 14.0307 7.88455 13.339C7.26561 12.6248 6.69611 11.8669 6.18021 11.071C5.67957 10.3047 5.22566 9.50722 4.82109 8.68324C4.64718 8.3341 4.33588 7.63492 4.33675 7.6376C4.36403 7.58277 4.39303 7.52887 4.4237 7.47598C4.4011 7.51616 4.37588 7.55366 4.3524 7.59295C4.52892 7.25185 4.73153 6.92592 4.95674 6.61696H4.95848ZM12.8767 18.4583C12.5202 18.5628 12.155 18.6378 11.7871 18.6851C11.848 18.444 11.9306 18.2083 12.0306 17.9806C12.3063 18.1458 12.5889 18.3056 12.8767 18.4583ZM8.36455 18.2931C7.78684 18.0817 7.23708 17.797 6.72804 17.4457C6.93673 16.7528 7.22021 16.0866 7.57325 15.4589C7.70107 15.2267 7.83846 14.9928 7.98542 14.757C8.40803 15.1946 8.85585 15.6187 9.32976 16.0286C9.22106 16.2134 9.11933 16.3974 9.02454 16.5804C8.73809 17.1219 8.51648 17.697 8.36455 18.2931ZM3.87153 8.73235C3.98197 8.96719 4.09762 9.20204 4.21936 9.43688C3.97762 9.75566 3.74284 10.0852 3.51588 10.4254C3.57067 9.84853 3.6898 9.28061 3.87153 8.73235ZM5.63152 11.8353C5.07674 12.6604 4.60544 13.5409 4.22197 14.4633C3.86772 13.7152 3.63676 12.9119 3.53849 12.0862C3.89327 11.479 4.2811 10.8951 4.70109 10.3343C4.98805 10.837 5.29761 11.338 5.63152 11.8353ZM4.76196 15.4348L4.77501 15.4526C5.13153 14.4508 5.60109 13.4962 6.17413 12.6077C6.54543 13.1122 6.94369 13.6069 7.36977 14.0909C7.16977 14.4016 6.98369 14.716 6.81499 15.0214C6.48891 15.6071 6.215 16.2215 5.99761 16.8581C5.53571 16.4432 5.12564 15.9711 4.77675 15.4526L4.76196 15.4348ZM9.18454 18.5297C9.31802 17.9896 9.51758 17.4691 9.77845 16.9805C9.84802 16.8465 9.92193 16.7126 9.99932 16.5751C10.4054 16.8939 10.8289 17.1992 11.2697 17.4921C11.0876 17.8918 10.9581 18.3146 10.8845 18.7494H10.8697C10.3073 18.7476 9.74684 18.6799 9.19933 18.5476L9.18454 18.5297Z" fill="white"/>
</svg>
