<svg width="101" height="74" viewBox="0 0 101 74" fill="none" xmlns="http://www.w3.org/2000/svg">
<path d="M1.11385 54.1812C0.959239 54.2856 0.74822 54.2418 0.643755 54.0872C0.54138 53.9305 0.583165 53.7194 0.737773 53.6171L0.74822 53.6087C3.15508 51.977 5.56404 50.3473 8.61441 49.9525C10.1396 49.754 11.8089 49.8689 13.4762 50.1551C15.133 50.4372 16.7919 50.8885 18.3087 51.3669C18.8143 51.5257 19.3784 51.7137 19.9196 51.8934C22.1509 52.6351 24.0041 53.2514 25.3664 52.9025L25.4144 52.89C24.6079 52.234 23.9707 51.5445 23.4797 50.8529C22.4121 49.3528 22.0277 47.8402 22.0674 46.6305C22.0841 46.127 22.176 45.6715 22.3223 45.2766C22.5333 44.7146 22.8613 44.2675 23.2603 43.9645C23.6699 43.6532 24.1525 43.4924 24.6581 43.5091C24.9004 43.5174 25.147 43.5676 25.3914 43.6595C26.1707 43.952 26.9417 44.6937 27.5225 45.6402C28.0803 46.5448 28.4752 47.6459 28.5483 48.7219C28.6257 49.8417 28.354 50.9365 27.8171 51.8077C27.5225 52.2862 27.1485 52.6978 26.7077 53.0112C27.0399 53.2368 27.3971 53.4583 27.7816 53.6735C29.8416 54.8226 32.6455 55.767 35.9277 56.3478C38.9656 56.8847 42.4024 57.1083 46.0336 56.891C49.9657 56.657 54.1213 55.9048 58.0429 54.6492C61.6699 53.4875 65.1005 51.8913 67.967 49.871C70.3927 48.1598 72.4151 46.1437 74.0531 43.929C74.4292 42.8092 75.0602 40.9183 75.2775 38.9941C75.4718 37.26 75.3276 35.4925 74.8575 34.0132C74.4292 32.6698 73.7314 31.5729 72.7745 30.9754C72.5551 30.8375 72.3211 30.7268 72.0746 30.639C72.1874 31.9804 72.2376 33.2924 72.2062 34.5168C72.1728 35.9249 72.0286 37.2182 71.7487 38.4488C71.4666 39.6878 71.0467 40.8619 70.4575 42.0257C69.8286 43.2667 69.0054 44.4994 68.1216 45.4312C67.3214 46.2774 66.4648 46.8812 65.6375 47.0442C64.7997 47.2092 64.0183 46.923 63.3288 46.3756C62.5495 45.7572 61.8851 44.7898 61.3879 43.7744C60.9178 42.8154 60.596 41.8063 60.4623 40.7491H60.4602C60.339 39.7692 60.3808 38.7476 60.6253 37.6925C60.8948 36.5434 61.4025 35.3546 62.1818 34.2472C62.8754 33.2569 63.7864 32.3334 64.9313 31.5646C66.2246 30.6934 67.8208 30.0185 69.3648 29.7908C70.0313 29.6926 70.6894 29.6759 71.3141 29.7636C71.1657 28.3701 70.9547 26.9577 70.6998 25.5955C70.4199 24.1121 70.0898 22.6893 69.7325 21.327C69.3752 19.9586 68.9908 18.6486 68.6084 17.3908C68.2261 16.1393 67.8459 14.9401 67.3402 13.7429C66.8367 12.5541 66.2099 11.3653 65.3324 10.1243C65.2718 10.0386 65.2113 9.95294 65.1486 9.86728C64.1771 9.92996 63.1658 10.1535 62.1588 10.5003C60.8509 10.9474 59.5514 11.6035 58.3417 12.387C57.1779 13.1412 56.0999 14.0166 55.1701 15.1177C54.2425 16.2208 53.4569 17.5517 52.8782 19.2252C51.7061 22.6141 51.3572 27.4278 51.0082 32.2415C51.8293 33.9735 52.8071 35.739 53.8894 37.4146C55.4104 39.7671 57.1341 41.94 58.9099 43.5864C60.4351 44.9987 62.0084 46.0371 63.287 46.8791C65.2551 48.1724 66.5756 49.0436 66.1368 50.2617C65.8046 51.181 64.2857 52.1901 62.1776 53.0446C60.1343 53.872 57.5101 54.5802 54.8797 54.9354C52.2075 55.2948 49.5269 55.2885 47.072 54.925C44.6652 54.5677 42.4693 53.8657 40.7039 52.8211C39.6467 52.1964 38.742 51.4484 37.9711 50.598C37.0121 50.1196 36.1367 49.5806 35.3281 48.9851C33.6525 47.7503 32.2631 46.2711 31.0179 44.56C29.8061 42.8906 28.728 41.004 27.8255 39.0359C26.8853 36.9842 26.1331 34.8427 25.6108 32.7659C25.1073 30.7602 24.8148 28.813 24.7229 26.9243C24.6267 24.9812 24.7417 23.105 25.0467 21.3041C25.3476 19.524 25.8364 17.8129 26.5698 16.1477C27.301 14.4846 28.2788 12.8654 29.5575 11.2608C30.8758 9.61029 32.5117 7.98065 34.3775 6.50978C36.1262 5.13085 38.0818 3.88772 40.1732 2.89113C42.3105 1.87364 44.5858 1.11523 46.8694 0.630514C49.1947 0.137441 51.5285 -0.0693996 53.7285 0.0204402C55.3728 0.0872975 56.9397 0.319209 58.3061 0.605442C60.5626 1.07762 62.28 1.69187 62.8984 1.93632C63.0259 1.98438 63.1282 2.03452 63.2055 2.08466C64.2293 2.16614 65.2301 2.34164 66.1932 2.62788C68.6878 3.36958 70.9067 4.84462 72.8037 6.81482C74.8429 8.93545 76.5102 11.6306 77.7449 14.6037C78.7415 17.0085 79.4581 19.5971 79.8468 22.2693C80.3419 23.924 80.6302 25.7208 80.6741 27.6033C80.7263 29.8263 80.4401 32.1663 79.7506 34.5314C79.1991 36.4222 78.3947 38.3234 77.5757 39.9907C76.2991 42.5814 74.9766 44.6206 74.5211 45.1575L74.5044 45.1784C74.2663 45.4521 74.0615 45.4981 73.8714 45.3309C73.8609 45.3205 73.8505 45.3121 73.8421 45.3017C72.3065 47.1925 70.4825 48.9224 68.3556 50.4225C65.4348 52.4826 61.9415 54.1081 58.2456 55.2927C54.2675 56.5672 50.0555 57.3277 46.0733 57.5658C42.3857 57.7852 38.8945 57.5596 35.8107 57.0143C32.4574 56.4209 29.5784 55.4473 27.4536 54.2627C26.9459 53.9785 26.4799 53.6839 26.0558 53.3789C25.8866 53.452 25.7132 53.5126 25.5314 53.5586C23.9832 53.9534 22.0423 53.3099 19.7086 52.5327C19.2176 52.3698 18.7099 52.2005 18.1061 52.0104C16.6143 51.5403 14.9847 51.0974 13.3613 50.8195C11.7504 50.5437 10.1479 50.4309 8.69798 50.6189C5.81267 50.995 3.46848 52.5808 1.12638 54.1686L1.11385 54.177V54.1812ZM26.1206 52.5871C26.5719 52.3175 26.9521 51.9247 27.2425 51.4526C27.7064 50.7004 27.9425 49.7477 27.8756 48.7678C27.8108 47.8026 27.4536 46.8122 26.95 45.9932C26.4423 45.1701 25.7926 44.5328 25.1553 44.2926C24.9798 44.2257 24.8064 44.1923 24.6372 44.186C24.2883 44.1735 23.9519 44.2842 23.6678 44.5036C23.369 44.7292 23.1204 45.0719 22.9553 45.5127C22.832 45.8407 22.7568 46.2231 22.7422 46.6514C22.7046 47.7315 23.0577 49.0917 24.0292 50.4602C24.5432 51.183 25.2285 51.9039 26.1185 52.5871H26.1206ZM75.3673 41.9797C77.0199 39.2783 78.1586 36.347 78.8167 33.3509C79.4937 30.2588 79.6587 27.1019 79.3767 24.0306C79.3265 23.4916 79.2638 22.9567 79.1865 22.4239C79.0695 22.0311 78.9379 21.6446 78.7958 21.2706C78.1586 19.5908 77.2916 18.0928 76.3159 16.7766C75.127 15.1783 73.7815 13.8474 72.4966 12.786C71.3308 11.8249 70.2193 11.0874 69.1015 10.5923C68.0778 10.1368 67.0498 9.88608 65.9655 9.85265C66.8325 11.0958 67.4572 12.2888 67.9608 13.4818C68.4789 14.704 68.8675 15.9241 69.254 17.1965C69.6406 18.4647 70.0271 19.7831 70.3864 21.1578C70.7479 22.5388 71.0822 23.9742 71.3642 25.4701C71.6358 26.9138 71.8573 28.4202 72.0077 29.9057C72.4068 30.0185 72.7849 30.1815 73.1339 30.3988C74.2349 31.0861 75.0268 32.3167 75.501 33.8085C76.0004 35.3775 76.155 37.2454 75.9502 39.0693C75.8353 40.0868 75.6118 41.0897 75.3673 41.9797ZM78.4929 18.962C78.1273 17.5517 77.6676 16.1811 77.1202 14.8649C75.9168 11.967 74.2976 9.34287 72.3169 7.28491C70.4993 5.39619 68.3786 3.98383 66.0031 3.27765C64.9585 2.96843 63.8616 2.79293 62.7396 2.73652L62.6978 2.73443C62.1463 2.71772 60.9595 2.67802 59.5702 3.03529C59.2568 3.11677 58.9308 3.21915 58.5986 3.33824C59.8689 3.92951 61.0786 4.74851 62.1797 5.68242C63.4395 6.75005 64.5615 7.97229 65.4724 9.17363C65.5539 9.17154 65.6333 9.17154 65.7148 9.17154C66.9872 9.17154 68.1864 9.44524 69.3752 9.97174C70.5473 10.4941 71.711 11.2629 72.9249 12.2658C74.2475 13.3564 75.6347 14.727 76.857 16.3754C77.4482 17.1714 78.0019 18.0364 78.4929 18.962ZM58.3876 2.35836C59.3153 2.1933 60.245 2.08675 61.1664 2.05123C60.3745 1.80052 59.3487 1.51637 58.1683 1.26984C56.8332 0.989872 55.3017 0.762139 53.7013 0.697371C51.5577 0.609621 49.2804 0.814371 47.0072 1.29491C44.7759 1.76918 42.5508 2.50879 40.4615 3.50538C38.4203 4.4769 36.5086 5.69496 34.7953 7.04673C32.9651 8.48834 31.3668 10.0783 30.084 11.685C28.845 13.2373 27.8986 14.8085 27.1882 16.4235C26.4779 18.0364 26.0036 19.6932 25.7132 21.4169C25.4144 23.174 25.3037 25.0021 25.3956 26.895C25.4875 28.7336 25.7717 30.639 26.2668 32.6051C26.7808 34.6442 27.5183 36.7481 28.4397 38.758C29.3256 40.6885 30.3786 42.5355 31.5632 44.1651C32.7666 45.8198 34.108 47.2489 35.7272 48.4419C36.0991 48.7135 36.4835 48.9747 36.8846 49.2212C36.7614 49.0436 36.6444 48.8618 36.5315 48.678C35.514 47.0233 34.8183 45.122 34.3211 43.0745C33.8113 40.9769 33.5083 38.7204 33.4582 36.395C33.4122 34.1971 33.5919 31.9448 34.0369 29.7114C34.4757 27.5134 35.1714 25.3322 36.0594 23.1949C36.5378 22.0437 37.0727 20.905 37.6535 19.781C37.7015 18.9453 37.7956 18.1158 37.9376 17.2947C38.2803 15.3245 38.8987 13.4191 39.8075 11.6682C40.7206 9.90697 41.9303 8.3024 43.3134 6.93809C44.7362 5.54035 46.3429 4.39333 48.008 3.59522C49.669 2.80129 51.3864 2.35 53.0892 2.26434C54.3595 2.19957 55.6235 2.33747 56.8499 2.68638C57.3597 2.56102 57.8737 2.45029 58.3876 2.35836ZM56.7371 3.41345C54.4556 4.01099 52.2493 4.94908 50.3188 6.08566C48.0226 7.43325 46.1151 9.06081 44.4667 10.8639C42.814 12.6711 41.4184 14.6622 40.1502 16.7348C39.5046 17.792 38.8903 18.87 38.32 19.9627C38.2615 21.1286 38.2928 22.3007 38.414 23.4644C38.6208 25.4534 39.0888 27.4215 39.7198 29.3687C40.3529 31.3222 41.1531 33.2569 42.0243 35.177C42.8934 37.0929 43.8315 38.992 44.918 40.793C46.0002 42.5898 47.2266 44.2884 48.6766 45.8115C49.621 46.8039 50.6614 47.7211 51.5912 48.5443C52.6442 49.474 53.5593 50.2847 54.067 50.9553C54.6269 51.697 54.7376 52.305 54.1296 52.7667C53.4109 53.3099 51.3676 53.4729 48.9085 53.2995C46.5372 53.1324 43.7438 52.6644 41.3745 51.9435C40.8438 51.7827 40.3382 51.6072 39.8493 51.4212C40.2233 51.7137 40.6224 51.9874 41.0486 52.2381C42.7367 53.2368 44.849 53.9117 47.1723 54.2543C49.5666 54.6095 52.1824 54.6137 54.7899 54.2648C57.366 53.9179 59.9316 53.2243 61.929 52.4157C63.8658 51.6302 65.2384 50.761 65.5017 50.0318C65.7607 49.3152 64.6179 48.5631 62.9193 47.4432C61.6198 46.5887 60.0215 45.5357 58.4545 44.0836C56.6326 42.3934 54.8734 40.1767 53.3253 37.7823C51.6538 35.1958 50.2268 32.3982 49.2386 29.8263C48.2817 27.3421 47.7322 25.0711 47.4857 22.9588C47.2371 20.8444 47.2914 18.8888 47.5379 17.0377C47.7928 15.149 48.2504 13.3689 48.9294 11.7393C49.5854 10.166 50.4483 8.7307 51.5368 7.46459C52.5982 6.22773 53.8748 5.15592 55.1889 4.30558C55.7008 3.97338 56.221 3.67461 56.7371 3.41345ZM49.9761 5.50066C51.6497 4.51869 53.5238 3.6767 55.4752 3.07081C54.7 2.94336 53.9124 2.89949 53.1226 2.93918C51.5076 3.02067 49.8779 3.44688 48.2984 4.20529C46.7022 4.96998 45.1582 6.07103 43.7876 7.42072C42.4547 8.73279 41.2889 10.281 40.4072 11.9816C39.5318 13.6698 38.9363 15.5063 38.6062 17.4096C38.5581 17.6896 38.5143 17.9696 38.4788 18.2516C38.8318 17.6227 39.1975 16.998 39.5756 16.3817C40.8605 14.2799 42.2813 12.2553 43.9694 10.4084C45.6617 8.55729 47.6194 6.88795 49.9782 5.50274L49.9761 5.50066ZM37.618 21.3709C37.2879 22.0583 36.9766 22.754 36.6861 23.4519C35.8149 25.5474 35.1317 27.6869 34.7013 29.843C34.2647 32.0326 34.0892 34.2368 34.1351 36.3804C34.1832 38.6536 34.4798 40.8619 34.9792 42.9157C35.4597 44.8985 36.1304 46.7329 37.1061 48.3207C37.4843 48.9371 37.9084 49.5137 38.3868 50.0506C39.3542 50.527 40.4093 50.9428 41.5688 51.2959C43.8879 52.002 46.6249 52.4596 48.9545 52.6226C51.2652 52.7855 53.1372 52.6685 53.7222 52.2256C53.9353 52.0647 53.833 51.766 53.5279 51.3648C53.0578 50.7422 52.1678 49.9545 51.144 49.0499C50.2018 48.2163 49.1467 47.2844 48.1877 46.2774C46.7001 44.7146 45.4445 42.9784 44.3392 41.144C43.2382 39.318 42.2875 37.3958 41.4079 35.4548C40.5284 33.5181 39.7198 31.5604 39.0784 29.5798C38.4328 27.5908 37.9543 25.5767 37.7433 23.5354C37.6681 22.8167 37.6263 22.0938 37.618 21.373V21.3709ZM49.8675 29.5839C50.0409 30.0331 50.2268 30.4907 50.4274 30.9503C50.7534 26.521 51.142 22.1878 52.243 19.0058C52.8531 17.2446 53.6784 15.8427 54.6561 14.681C55.6318 13.5235 56.7601 12.6084 57.976 11.8208C59.2317 11.0059 60.5835 10.3248 61.9436 9.85892C62.8545 9.54553 63.7717 9.32824 64.6639 9.23004C63.8365 8.18122 62.8462 7.1303 61.7451 6.19848C60.5354 5.17264 59.192 4.29304 57.7859 3.72267L57.7191 3.69551C57.0066 4.01308 56.2754 4.41004 55.5545 4.87596C54.2905 5.69496 53.0662 6.72289 52.0466 7.90752C51.0082 9.11722 50.183 10.492 49.5541 12.0004C48.896 13.5779 48.4551 15.2994 48.2086 17.1297C47.9662 18.9244 47.9161 20.8256 48.1564 22.8836C48.3987 24.9436 48.9336 27.1604 49.8675 29.5839ZM71.5335 34.5C71.5669 33.2298 71.5084 31.8592 71.383 30.4593C70.7792 30.3549 70.1274 30.3632 69.463 30.4614C68.0193 30.6745 66.5233 31.3076 65.3074 32.1266C64.2376 32.8453 63.3852 33.7103 62.7354 34.6379C62.0105 35.668 61.5341 36.7774 61.2855 37.8471C61.0598 38.8186 61.0201 39.7609 61.135 40.6676H61.133C61.2562 41.6433 61.5571 42.5814 61.9958 43.4777C62.4513 44.4116 63.0551 45.2912 63.7508 45.8449C64.292 46.2753 64.8874 46.5009 65.51 46.3777C66.189 46.244 66.9266 45.7133 67.6348 44.9653C68.4726 44.0815 69.2561 42.9053 69.8558 41.7185C70.422 40.605 70.8231 39.4809 71.0926 38.3005C71.3621 37.1117 71.5 35.8623 71.5355 34.5H71.5335Z" fill="white"/>
<path d="M5.34441 66.3303L3.11305 70.0764L0.963164 66.3303H0L2.37344 70.488V73.7076H3.21751V70.2645L5.57841 66.3303H5.34441Z" fill="white"/>
<path d="M17.6298 73.7075H18.5345L15.3044 66.1902H15.2459L11.8989 73.7075H12.1559L13.4847 70.7469H16.3491L17.6298 73.7075ZM13.5661 70.5464L14.9409 67.4584L16.2676 70.5464H13.5661Z" fill="white"/>
<path d="M30.2091 73.7076L27.4491 70.231C28.3183 70.1119 29.6345 69.6899 29.6345 68.1752C29.6345 66.5539 27.8733 66.3303 27.2736 66.3303C26.6991 66.3303 25.0423 66.3303 25.0423 66.3303V73.7076H25.8759V70.277H26.417L29.1415 73.7076H30.2091ZM25.8759 66.5184H26.8265C28.0258 66.5184 28.7424 67.0114 28.7424 68.3047C28.7424 69.6189 27.8962 70.089 26.5215 70.089H25.8759V66.5184Z" fill="white"/>
<path d="M42.6842 66.3302H42.4962V72.5792L36.7172 66.1902H36.6942V73.7075H36.8822V67.5294L42.6487 73.9185H42.6842V66.3302Z" fill="white"/>
<path d="M49.2389 73.1539V73.4255C49.2389 73.4255 49.9556 74 51.2238 74C52.492 74 53.7017 73.1204 53.7017 71.8167C53.7017 69.1842 49.9305 69.9593 49.9305 67.822C49.9305 66.9884 50.5071 66.3073 51.5163 66.3073C52.5149 66.3073 53.1605 66.7878 53.1605 66.7878L53.1501 66.5413C53.1501 66.5413 52.446 66.1067 51.5058 66.1067C50.5782 66.1067 49.2745 66.6708 49.2745 68.1396C49.2745 70.77 53.0331 69.7838 53.0331 72.1092C53.0331 73.2479 52.1639 73.812 51.2238 73.812C50.2125 73.812 49.6505 73.4714 49.2389 73.1539Z" fill="white"/>
<path d="M66.353 73.0368C66.353 73.0368 65.5654 73.7179 64.2032 73.7179C62.8869 73.7179 61.0191 73.1308 61.0191 70.0428C61.0191 67.0008 63.0624 66.3782 64.2032 66.3782C65.5884 66.3782 66.353 66.9298 66.353 66.9298V66.6707C66.353 66.6707 65.5424 66.1902 64.2032 66.1902C62.0888 66.1902 60.1625 67.3163 60.1625 70.0428C60.1625 73.1789 62.6174 73.9185 64.0966 73.9185C65.5654 73.9185 66.353 73.2959 66.353 73.2959V73.0368Z" fill="white"/>
<path d="M78.5204 73.7075H79.425L76.195 66.1902H76.1365L72.7895 73.7075H73.0464L74.3752 70.7469H77.2396L78.5204 73.7075ZM74.4567 70.5464L75.8315 67.4584L77.1582 70.5464H74.4567Z" fill="white"/>
<path d="M88.1642 66.3303C87.5897 66.3303 85.9329 66.3303 85.9329 66.3303V73.7076H86.7665V70.277H87.6126C87.9636 70.277 90.5251 70.2895 90.5251 68.1752C90.5251 66.5539 88.7638 66.3303 88.1642 66.3303ZM87.4121 70.089H86.7665V66.5184H87.7171C88.9164 66.5184 89.633 67.0114 89.633 68.3047C89.633 69.6189 88.7868 70.089 87.4121 70.089Z" fill="white"/>
<path d="M100.839 66.5184V66.3303H97.1033V73.7076H100.839V73.5196H97.9369V69.949H100.521V69.7609H97.9369V66.5184H100.839Z" fill="white"/>
</svg>
