<svg width="206" height="36" viewBox="0 0 206 36" fill="none" xmlns="http://www.w3.org/2000/svg">
<path d="M0.331091 33.6478C0.233356 33.7118 0.102185 33.6862 0.0353137 33.5889C-0.0289861 33.4916 -0.00326555 33.3609 0.0944691 33.2969L0.102185 33.2918C1.61193 32.2775 3.12168 31.2658 5.0378 31.0199C5.992 30.897 7.0388 30.9687 8.08559 31.1454C9.12467 31.3221 10.1663 31.6013 11.1179 31.8984C11.4343 31.9983 11.7892 32.1136 12.1287 32.2263C13.5279 32.6873 14.6904 33.0689 15.5443 32.8538L15.5752 32.8461C15.0711 32.4363 14.6698 32.0086 14.3612 31.5808C13.6925 30.6485 13.4507 29.7085 13.4764 28.958C13.4867 28.6456 13.5433 28.3613 13.6359 28.1179C13.7697 27.767 13.9754 27.4904 14.2249 27.3034C14.4821 27.1088 14.783 27.0089 15.1019 27.0191C15.2537 27.0243 15.408 27.055 15.5623 27.1114C16.051 27.2958 16.5345 27.7542 16.8997 28.3433C17.2495 28.9043 17.4964 29.5881 17.5427 30.2566C17.589 30.9533 17.4193 31.632 17.0824 32.1725C16.8972 32.4696 16.6631 32.7257 16.3879 32.9204C16.5963 33.0613 16.82 33.1996 17.0618 33.3302C18.3529 34.0448 20.1121 34.6313 22.1723 34.9925C24.0781 35.3254 26.2334 35.4638 28.5122 35.3306C30.9787 35.1846 33.5841 34.7184 36.0455 33.9372C38.3217 33.2149 40.4719 32.2237 42.2723 30.9687C43.7923 29.9083 45.0629 28.6558 46.0891 27.2804C46.3257 26.5837 46.7218 25.4106 46.8581 24.2171C46.979 23.1388 46.889 22.04 46.5932 21.123C46.3257 20.288 45.8885 19.6067 45.2892 19.2353C45.1503 19.1508 45.0037 19.0817 44.8468 19.0279C44.9188 19.8603 44.9497 20.6748 44.9317 21.4355C44.9085 22.3089 44.8211 23.1132 44.6436 23.8764C44.4687 24.6474 44.2038 25.3748 43.8335 26.0971C43.4399 26.868 42.923 27.6339 42.37 28.2127C41.8685 28.7378 41.3284 29.1143 40.8114 29.2142C40.2841 29.3166 39.7955 29.1399 39.3608 28.7992C38.8721 28.4151 38.4555 27.8157 38.1442 27.1831C37.8485 26.5888 37.6479 25.9613 37.563 25.3056C37.4858 24.696 37.5115 24.0634 37.6659 23.4077C37.833 22.6931 38.1545 21.9555 38.6406 21.269C39.0779 20.6543 39.6489 20.0806 40.3664 19.6016C41.1792 19.0612 42.1797 18.6411 43.1493 18.5003C43.566 18.4388 43.9801 18.4285 44.371 18.4823C44.2784 17.6192 44.1472 16.7406 43.9852 15.8954C43.8103 14.9733 43.602 14.0897 43.3808 13.2445C43.1545 12.3941 42.9153 11.5796 42.6735 10.801C42.4343 10.0223 42.1951 9.27701 41.8788 8.53423C41.5624 7.79658 41.1689 7.05636 40.6185 6.28797C40.5825 6.23418 40.5439 6.18039 40.5027 6.12661C39.8932 6.16759 39.2605 6.3059 38.6278 6.52105C37.8073 6.80023 36.992 7.20491 36.2333 7.69412C35.5028 8.16028 34.8264 8.70328 34.2426 9.3897C33.6613 10.0736 33.1701 10.9009 32.8048 11.9408C32.0692 14.0436 31.8506 17.0326 31.632 20.0217C32.1464 21.0974 32.7611 22.1937 33.4401 23.2335C34.3943 24.696 35.4771 26.0458 36.5908 27.0678C37.545 27.9463 38.5326 28.5892 39.3351 29.1117C40.5696 29.916 41.3978 30.4564 41.1226 31.212C40.9143 31.7832 39.9626 32.4107 38.6406 32.9409C37.3572 33.4557 35.7112 33.8937 34.06 34.1139C32.3856 34.3368 30.7035 34.3342 29.1629 34.1088C27.6532 33.8886 26.2746 33.4506 25.1686 32.8026C24.5051 32.4132 23.9367 31.9496 23.4531 31.422C22.8513 31.1249 22.3035 30.7894 21.7968 30.4206C20.7423 29.6522 19.8729 28.7352 19.0911 27.6723C18.3298 26.6349 17.6559 25.4644 17.0901 24.2427C16.4985 22.9672 16.0253 21.6378 15.6986 20.3495C15.3823 19.1022 15.1997 17.8932 15.1405 16.7201C15.0814 15.5138 15.1534 14.3484 15.3437 13.2291C15.534 12.1252 15.8401 11.0622 16.3005 10.0275C16.7609 8.99526 17.373 7.98867 18.1754 6.99233C19.001 5.96781 20.0273 4.95609 21.1975 4.04427C22.2957 3.18623 23.5226 2.41528 24.8343 1.79545C26.1743 1.16281 27.6043 0.691525 29.0369 0.391853C30.4952 0.087058 31.9587 -0.0435679 33.3372 0.0127804C34.3712 0.0537612 35.3537 0.199756 36.2101 0.376485C37.6273 0.668473 38.7049 1.05011 39.0907 1.20122C39.1705 1.23196 39.2348 1.2627 39.2836 1.29599C39.9266 1.34466 40.5542 1.45479 41.1586 1.63152C42.7249 2.09256 44.1164 3.0095 45.3046 4.23124C46.5855 5.55031 47.6323 7.22284 48.4064 9.06954C49.0314 10.5628 49.4815 12.1687 49.7233 13.831C50.0345 14.8581 50.2171 15.9748 50.2428 17.1428C50.2762 18.5233 50.0962 19.9756 49.6641 21.4458C49.3195 22.6188 48.8128 23.7996 48.2984 24.8344C47.4985 26.4429 46.6678 27.7107 46.3823 28.0437L46.372 28.0565C46.2228 28.2255 46.0968 28.2537 45.9759 28.1512C45.9682 28.1436 45.963 28.1384 45.9579 28.1333C44.9934 29.3064 43.8489 30.3821 42.5166 31.3119C40.6828 32.5925 38.4915 33.6017 36.1741 34.3368C33.6767 35.1282 31.0353 35.6021 28.5354 35.7481C26.2232 35.8864 24.0318 35.7455 22.0977 35.4048C19.9938 35.0386 18.1883 34.4341 16.8534 33.6965C16.5371 33.5223 16.2439 33.3379 15.979 33.1483C15.8735 33.1944 15.7629 33.2329 15.6498 33.261C14.6776 33.5069 13.461 33.1048 11.995 32.6233C11.6889 32.5208 11.37 32.4158 10.9919 32.298C10.0557 32.0086 9.03208 31.7319 8.01358 31.5603C7.00279 31.3887 5.99715 31.3196 5.08924 31.4348C3.27857 31.6679 1.8074 32.6514 0.338807 33.6375L0.331091 33.6452V33.6478ZM16.0176 32.6566C16.303 32.4901 16.5397 32.2442 16.7223 31.9522C17.0129 31.4861 17.1621 30.8944 17.1184 30.2848C17.0798 29.6855 16.856 29.0707 16.5397 28.5636C16.2207 28.0513 15.8144 27.6543 15.4131 27.5058C15.3025 27.4648 15.1945 27.4443 15.0891 27.4392C14.8679 27.4315 14.6596 27.5007 14.4795 27.6364C14.2918 27.7773 14.1374 27.9899 14.032 28.2639C13.9548 28.4688 13.9085 28.7045 13.8983 28.9709C13.8751 29.6419 14.0963 30.4871 14.7084 31.3375C15.0299 31.7857 15.4594 32.234 16.0176 32.6566ZM46.9147 26.0689C47.9512 24.3938 48.6662 22.5727 49.0777 20.7107C49.5047 18.7922 49.605 16.8303 49.4301 14.9221C49.3992 14.5891 49.3581 14.2562 49.3118 13.9258C49.2372 13.6824 49.1549 13.4417 49.0648 13.2086C48.6662 12.1662 48.1209 11.2364 47.5088 10.4193C46.7629 9.42556 45.9193 8.60082 45.1117 7.94001C44.3813 7.34323 43.6843 6.88475 42.9847 6.5774C42.3417 6.29565 41.6961 6.13941 41.0171 6.11892C41.5598 6.88988 41.9533 7.63265 42.2671 8.37287C42.5938 9.13101 42.8355 9.88916 43.0799 10.678C43.3216 11.4669 43.5634 12.2865 43.7897 13.1395C44.0161 13.9975 44.227 14.8888 44.4019 15.8186C44.5716 16.715 44.7131 17.6499 44.8057 18.572C45.0577 18.6411 45.2943 18.7436 45.513 18.8793C46.2048 19.3045 46.7012 20.0678 46.9996 20.995C47.3108 21.9708 47.4085 23.1285 47.2799 24.2632C47.2079 24.8933 47.0664 25.5157 46.9147 26.0689ZM48.8745 11.7768C48.6456 10.9009 48.3576 10.048 48.0155 9.2309C47.2593 7.43287 46.2434 5.80388 45.0011 4.52579C43.8592 3.35272 42.5295 2.47419 41.0403 2.03621C40.3844 1.84411 39.6951 1.73397 38.9904 1.70068L38.9647 1.69812C38.6201 1.68787 37.8742 1.66226 37.0049 1.88509C36.8068 1.93632 36.6036 1.99779 36.3953 2.07463C37.1926 2.44089 37.9488 2.94803 38.6406 3.52945C39.4328 4.19282 40.135 4.95097 40.7059 5.69887C40.7574 5.69631 40.8088 5.69631 40.8577 5.69631C41.6576 5.69631 42.4086 5.86535 43.1545 6.1932C43.89 6.51592 44.6205 6.99489 45.3818 7.61728C46.2125 8.29603 47.0819 9.14638 47.8483 10.1683C48.2212 10.6652 48.5685 11.2005 48.8745 11.7768ZM36.2616 1.46504C36.8428 1.36259 37.4267 1.29599 38.0054 1.27294C37.509 1.11926 36.8634 0.942533 36.1252 0.788855C35.2868 0.614686 34.3274 0.473815 33.3218 0.432834C31.9767 0.379046 30.5492 0.50455 29.1218 0.804223C27.7226 1.09877 26.326 1.55981 25.0143 2.17708C23.7361 2.78155 22.5349 3.53713 21.4599 4.37468C20.3128 5.27113 19.3097 6.25979 18.5047 7.25614C17.7279 8.21919 17.1338 9.19505 16.6888 10.1991C16.2439 11.2005 15.9455 12.2302 15.7629 13.3008C15.5752 14.3919 15.5057 15.5266 15.5649 16.7022C15.6215 17.8446 15.7989 19.0279 16.1101 20.2471C16.4316 21.5149 16.8946 22.8212 17.4733 24.0685C18.0288 25.2672 18.6898 26.4147 19.4331 27.4264C20.1893 28.4535 21.0303 29.3422 22.0463 30.0825C22.2777 30.2515 22.5195 30.4129 22.7716 30.5665C22.6944 30.4564 22.6224 30.3437 22.5504 30.2285C21.9125 29.2014 21.4753 28.0206 21.1641 26.7502C20.8452 25.4465 20.6548 24.0455 20.624 22.6009C20.5931 21.2383 20.7063 19.8373 20.9866 18.4516C21.2592 17.0864 21.6965 15.7315 22.2546 14.4047C22.5555 13.6901 22.8899 12.9806 23.2525 12.284C23.2834 11.7666 23.3425 11.2492 23.4326 10.7395C23.6486 9.51521 24.0344 8.33445 24.6054 7.2459C25.1789 6.15222 25.9377 5.15587 26.8044 4.30808C27.6969 3.4398 28.7051 2.72776 29.7493 2.23343C30.791 1.7391 31.8686 1.45992 32.9386 1.40613C33.7359 1.36515 34.5281 1.45223 35.2971 1.66994C35.616 1.59054 35.9401 1.52139 36.2616 1.46504ZM35.2276 2.12073C33.795 2.48956 32.4113 3.07354 31.1999 3.77789C29.7596 4.618 28.5611 5.62715 27.5271 6.74644C26.4932 7.86829 25.6162 9.1054 24.8214 10.3912C24.4151 11.0494 24.0293 11.7179 23.6718 12.3967C23.6357 13.1215 23.6563 13.8489 23.7309 14.5712C23.8621 15.8083 24.1553 17.0301 24.5514 18.239C24.9475 19.4505 25.449 20.6543 25.9968 21.8453C26.5421 23.0363 27.1311 24.2145 27.8126 25.3338C28.4891 26.448 29.2607 27.5032 30.1711 28.4484C30.7627 29.0656 31.4134 29.6368 31.9972 30.1465C32.6582 30.7253 33.2344 31.2274 33.5507 31.6449C33.9031 32.1033 33.9725 32.4824 33.5893 32.7693C33.1392 33.1074 31.8583 33.2072 30.3152 33.0997C28.8286 32.9947 27.0745 32.7052 25.5879 32.257C25.2561 32.1571 24.9372 32.0495 24.6311 31.9343C24.8651 32.1161 25.1172 32.2852 25.3847 32.4414C26.4443 33.0613 27.7689 33.4787 29.2246 33.6939C30.7292 33.9142 32.3702 33.9167 34.0059 33.699C35.6211 33.4839 37.2312 33.0536 38.4837 32.5516C39.6977 32.0623 40.5593 31.5219 40.7239 31.0711C40.886 30.6255 40.171 30.1567 39.1036 29.4626C38.2883 28.9324 37.2852 28.2767 36.3053 27.3752C35.1608 26.3276 34.0574 24.9496 33.0852 23.4641C32.0384 21.8581 31.1433 20.119 30.5209 18.5233C29.9216 16.9788 29.577 15.5701 29.4227 14.2587C29.2658 12.9448 29.2992 11.7307 29.4561 10.5807C29.6156 9.40763 29.9011 8.30371 30.328 7.28944C30.7395 6.31358 31.2822 5.42225 31.9638 4.63593C32.6299 3.86754 33.4298 3.2016 34.2554 2.67397C34.5769 2.46907 34.9036 2.28209 35.2276 2.12073ZM30.9839 3.41675C32.0358 2.80716 33.2112 2.28465 34.4355 1.90814C33.9468 1.82874 33.4555 1.80057 32.9591 1.82618C31.9458 1.87485 30.9221 2.14122 29.9319 2.6125C28.9314 3.08634 27.9618 3.77021 27.1028 4.60776C26.2669 5.42481 25.5339 6.3853 24.9835 7.44055C24.4331 8.48813 24.0601 9.63047 23.8518 10.8112C23.8209 10.9854 23.7952 11.1596 23.7721 11.3363C23.9932 10.9444 24.2222 10.5551 24.4588 10.1735C25.2664 8.8672 26.1563 7.61216 27.2159 6.4647C28.2782 5.31467 29.5076 4.27735 30.9864 3.41675H30.9839ZM23.2319 13.2726C23.0236 13.7004 22.8281 14.1307 22.6481 14.5635C22.1003 15.8647 21.6733 17.194 21.4033 18.5336C21.1281 19.8936 21.0175 21.2613 21.0458 22.5932C21.0766 24.0045 21.2618 25.3748 21.5756 26.6503C21.8791 27.8823 22.2983 29.0221 22.9104 30.0082C23.1471 30.3898 23.4146 30.7484 23.7129 31.0814C24.3199 31.3785 24.9835 31.6346 25.7113 31.8549C27.1645 32.2929 28.8826 32.5772 30.3435 32.6796C31.794 32.7795 32.9669 32.7078 33.3347 32.4312C33.4684 32.3313 33.4041 32.1469 33.2138 31.8984C32.918 31.5117 32.3599 31.0225 31.7169 30.4615C31.1253 29.9416 30.4643 29.3627 29.8625 28.7403C28.9289 27.7696 28.1418 26.6887 27.4474 25.5515C26.7581 24.4169 26.1614 23.2233 25.6084 22.0169C25.058 20.8157 24.5514 19.5991 24.1476 18.3696C23.7438 17.1351 23.4428 15.8852 23.3091 14.6148C23.2628 14.1691 23.2371 13.7209 23.2319 13.2726ZM30.917 18.3722C31.025 18.6514 31.1433 18.9357 31.2668 19.22C31.4725 16.4691 31.7169 13.7798 32.4062 11.8025C32.7894 10.7088 33.3064 9.83793 33.9211 9.11821C34.5332 8.39848 35.2405 7.82987 36.0044 7.34066C36.7914 6.83609 37.6401 6.41347 38.4915 6.12148C39.065 5.92683 39.6386 5.79364 40.1993 5.73217C39.6797 5.0816 39.0599 4.42846 38.368 3.84961C37.6093 3.21185 36.7682 2.66629 35.8861 2.31283L35.8423 2.2949C35.3948 2.49212 34.937 2.738 34.4843 3.02743C33.6922 3.53713 32.9231 4.1749 32.2827 4.91255C31.632 5.66045 31.115 6.51592 30.719 7.45336C30.3074 8.43178 30.0297 9.49984 29.8754 10.6371C29.7236 11.7512 29.6927 12.932 29.8445 14.2101C29.9962 15.4907 30.3306 16.8661 30.917 18.3722ZM44.5099 21.4253C44.5305 20.6364 44.4945 19.7835 44.4147 18.9152C44.0366 18.8512 43.6277 18.8563 43.211 18.9177C42.3057 19.0484 41.3669 19.4428 40.6031 19.95C39.9318 20.3982 39.3968 20.9361 38.9904 21.5098C38.5352 22.1501 38.2368 22.8391 38.0799 23.5025C37.9385 24.1069 37.9128 24.6909 37.9848 25.2544C38.0619 25.8614 38.2497 26.4429 38.5249 26.9987C38.8104 27.5801 39.1885 28.1256 39.6257 28.4714C39.9652 28.7378 40.3407 28.8761 40.7317 28.8018C41.156 28.7173 41.619 28.3869 42.0639 27.9233C42.5886 27.3752 43.0799 26.6452 43.4579 25.9075C43.8103 25.216 44.0624 24.5193 44.2321 23.7842C44.4019 23.0466 44.4893 22.2705 44.5099 21.4253Z" fill="white"/>
<path d="M75.8508 12.5317L72.8108 17.6185L69.8813 12.5317H68.567L71.8 18.1768V22.5439H72.9548V17.8746L76.1723 12.5317H75.8508Z" fill="white"/>
<path d="M92.5955 22.5439H93.8275L89.4269 12.3423H89.3471L84.7845 22.5439H85.1368L86.9449 18.5278H90.8517L92.5955 22.5439ZM87.0581 18.2563L88.9305 14.0635L90.7386 18.2563H87.0581Z" fill="white"/>
<path d="M109.74 22.5439L105.98 17.8259C107.163 17.6671 108.956 17.0934 108.956 15.0367C108.956 12.8365 106.556 12.5317 105.738 12.5317C104.954 12.5317 102.698 12.5317 102.698 12.5317V22.5439H103.835V17.89H104.57L108.284 22.5439H109.74ZM103.835 12.7879H105.131C106.764 12.7879 107.739 13.4564 107.739 15.2109C107.739 16.9961 106.587 17.6339 104.714 17.6339H103.835V12.7879Z" fill="white"/>
<path d="M126.742 12.5318H126.485V21.0149L118.609 12.3423H118.578V22.5439H118.833V14.1582L126.693 22.8308H126.742V12.5318Z" fill="white"/>
<path d="M135.675 21.796V22.1622C135.675 22.1622 136.653 22.9434 138.381 22.9434C140.109 22.9434 141.758 21.7473 141.758 19.9774C141.758 16.407 136.619 17.4597 136.619 14.5577C136.619 13.4256 137.404 12.501 138.78 12.501C140.14 12.501 141.022 13.1541 141.022 13.1541L141.004 12.8212C141.004 12.8212 140.045 12.2295 138.764 12.2295C137.499 12.2295 135.724 12.9953 135.724 14.988C135.724 18.5585 140.845 17.2189 140.845 20.377C140.845 21.9215 139.662 22.6873 138.381 22.6873C137.002 22.6873 136.236 22.2263 135.675 21.796Z" fill="white"/>
<path d="M158.999 21.6347C158.999 21.6347 157.927 22.5593 156.07 22.5593C154.277 22.5593 151.731 21.7628 151.731 17.5699C151.731 13.4411 154.516 12.5959 156.07 12.5959C157.957 12.5959 158.999 13.3463 158.999 13.3463V12.9954C158.999 12.9954 157.896 12.3423 156.07 12.3423C153.189 12.3423 150.563 13.8714 150.563 17.5699C150.563 21.8268 153.909 22.8308 155.926 22.8308C157.927 22.8308 158.999 21.9856 158.999 21.9856V21.6347Z" fill="white"/>
<path d="M175.583 22.5439H176.815L172.415 12.3423H172.335L167.772 22.5439H168.125L169.933 18.5278H173.84L175.583 22.5439ZM170.046 18.2563L171.918 14.0635L173.726 18.2563H170.046Z" fill="white"/>
<path d="M188.726 12.5317C187.942 12.5317 185.686 12.5317 185.686 12.5317V22.5439H186.823V17.89H187.975C188.456 17.89 191.944 17.9053 191.944 15.0367C191.944 12.8365 189.544 12.5317 188.726 12.5317ZM187.702 17.6339H186.823V12.7879H188.119C189.752 12.7879 190.727 13.4564 190.727 15.2109C190.727 16.9961 189.575 17.6339 187.702 17.6339Z" fill="white"/>
<path d="M206 12.7879V12.5317H200.91V22.5439H206V22.2903H202.047V17.4443H205.568V17.1882H202.047V12.7879H206Z" fill="white"/>
</svg>
